G04 #@! TF.GenerationSoftware,KiCad,Pcbnew,5.1.7-a382d34a8~87~ubuntu20.04.1*
G04 #@! TF.CreationDate,2020-10-08T17:39:55-07:00*
G04 #@! TF.ProjectId,Program Yoink,50726f67-7261-46d2-9059-6f696e6b2e6b,rev?*
G04 #@! TF.SameCoordinates,Original*
G04 #@! TF.FileFunction,Legend,Top*
G04 #@! TF.FilePolarity,Positive*
%FSLAX46Y46*%
G04 Gerber Fmt 4.6, Leading zero omitted, Abs format (unit mm)*
G04 Created by KiCad (PCBNEW 5.1.7-a382d34a8~87~ubuntu20.04.1) date 2020-10-08 17:39:55*
%MOMM*%
%LPD*%
G01*
G04 APERTURE LIST*
%ADD10C,0.120000*%
%ADD11C,0.150000*%
%ADD12C,4.089800*%
%ADD13C,1.852000*%
%ADD14C,0.752000*%
%ADD15O,1.102000X2.202000*%
%ADD16O,1.102000X1.702000*%
%ADD17C,2.102000*%
%ADD18C,3.150000*%
G04 APERTURE END LIST*
D10*
X-21777000Y257115000D02*
X-19117000Y257115000D01*
X-21777000Y257175000D02*
X-21777000Y257115000D01*
X-19117000Y257175000D02*
X-19117000Y257115000D01*
X-21777000Y257175000D02*
X-19117000Y257175000D01*
X-21777000Y258445000D02*
X-21777000Y259775000D01*
X-21777000Y259775000D02*
X-20447000Y259775000D01*
X114138400Y250698000D02*
G75*
G03*
X114138400Y250698000I-3000000J0D01*
G01*
X105238400Y252698000D02*
X105238400Y256798000D01*
X117038400Y256798000D02*
X117038400Y252698000D01*
X117038400Y248698000D02*
X117038400Y244598000D01*
X105238400Y248698000D02*
X105238400Y244598000D01*
X105238400Y244598000D02*
X117038400Y244598000D01*
X107338400Y243198000D02*
X107038400Y242898000D01*
X107038400Y242898000D02*
X107038400Y243498000D01*
X107038400Y243498000D02*
X107338400Y243198000D01*
X105238400Y256798000D02*
X107638400Y256798000D01*
X109838400Y256798000D02*
X112438400Y256798000D01*
X114638400Y256798000D02*
X117038400Y256798000D01*
X110638400Y250698000D02*
X111638400Y250698000D01*
X111138400Y250198000D02*
X111138400Y251198000D01*
X93214000Y257334000D02*
X93214000Y256184000D01*
X100514000Y257334000D02*
X93214000Y257334000D01*
X100514000Y251834000D02*
X93214000Y251834000D01*
X93251000Y250781000D02*
X93251000Y249631000D01*
X100551000Y250781000D02*
X93251000Y250781000D01*
X100551000Y245281000D02*
X93251000Y245281000D01*
X93251000Y244304000D02*
X93251000Y243154000D01*
X100551000Y244304000D02*
X93251000Y244304000D01*
X100551000Y238804000D02*
X93251000Y238804000D01*
X93288000Y237776000D02*
X93288000Y236626000D01*
X100588000Y237776000D02*
X93288000Y237776000D01*
X100588000Y232276000D02*
X93288000Y232276000D01*
X93251000Y231223000D02*
X93251000Y230073000D01*
X100551000Y231223000D02*
X93251000Y231223000D01*
X100551000Y225723000D02*
X93251000Y225723000D01*
D11*
X-22812333Y258992619D02*
X-22812333Y258278333D01*
X-22859952Y258135476D01*
X-22955190Y258040238D01*
X-23098047Y257992619D01*
X-23193285Y257992619D01*
X-21812333Y257992619D02*
X-22383761Y257992619D01*
X-22098047Y257992619D02*
X-22098047Y258992619D01*
X-22193285Y258849761D01*
X-22288523Y258754523D01*
X-22383761Y258706904D01*
X104343161Y244664666D02*
X104390780Y244807523D01*
X104390780Y245045619D01*
X104343161Y245140857D01*
X104295542Y245188476D01*
X104200304Y245236095D01*
X104105066Y245236095D01*
X104009828Y245188476D01*
X103962209Y245140857D01*
X103914590Y245045619D01*
X103866971Y244855142D01*
X103819352Y244759904D01*
X103771733Y244712285D01*
X103676495Y244664666D01*
X103581257Y244664666D01*
X103486019Y244712285D01*
X103438400Y244759904D01*
X103390780Y244855142D01*
X103390780Y245093238D01*
X103438400Y245236095D01*
X103390780Y245569428D02*
X104390780Y245807523D01*
X103676495Y245998000D01*
X104390780Y246188476D01*
X103390780Y246426571D01*
X104390780Y247331333D02*
X104390780Y246759904D01*
X104390780Y247045619D02*
X103390780Y247045619D01*
X103533638Y246950380D01*
X103628876Y246855142D01*
X103676495Y246759904D01*
X95697333Y250631619D02*
X95364000Y251107809D01*
X95125904Y250631619D02*
X95125904Y251631619D01*
X95506857Y251631619D01*
X95602095Y251584000D01*
X95649714Y251536380D01*
X95697333Y251441142D01*
X95697333Y251298285D01*
X95649714Y251203047D01*
X95602095Y251155428D01*
X95506857Y251107809D01*
X95125904Y251107809D01*
X96649714Y251584000D02*
X96554476Y251631619D01*
X96411619Y251631619D01*
X96268761Y251584000D01*
X96173523Y251488761D01*
X96125904Y251393523D01*
X96078285Y251203047D01*
X96078285Y251060190D01*
X96125904Y250869714D01*
X96173523Y250774476D01*
X96268761Y250679238D01*
X96411619Y250631619D01*
X96506857Y250631619D01*
X96649714Y250679238D01*
X96697333Y250726857D01*
X96697333Y251060190D01*
X96506857Y251060190D01*
X97459238Y251155428D02*
X97602095Y251107809D01*
X97649714Y251060190D01*
X97697333Y250964952D01*
X97697333Y250822095D01*
X97649714Y250726857D01*
X97602095Y250679238D01*
X97506857Y250631619D01*
X97125904Y250631619D01*
X97125904Y251631619D01*
X97459238Y251631619D01*
X97554476Y251584000D01*
X97602095Y251536380D01*
X97649714Y251441142D01*
X97649714Y251345904D01*
X97602095Y251250666D01*
X97554476Y251203047D01*
X97459238Y251155428D01*
X97125904Y251155428D01*
X98602095Y251631619D02*
X98125904Y251631619D01*
X98078285Y251155428D01*
X98125904Y251203047D01*
X98221142Y251250666D01*
X98459238Y251250666D01*
X98554476Y251203047D01*
X98602095Y251155428D01*
X98649714Y251060190D01*
X98649714Y250822095D01*
X98602095Y250726857D01*
X98554476Y250679238D01*
X98459238Y250631619D01*
X98221142Y250631619D01*
X98125904Y250679238D01*
X98078285Y250726857D01*
X101299714Y252531619D02*
X100728285Y252531619D01*
X101014000Y252531619D02*
X101014000Y253531619D01*
X100918761Y253388761D01*
X100823523Y253293523D01*
X100728285Y253245904D01*
X95734333Y244078619D02*
X95401000Y244554809D01*
X95162904Y244078619D02*
X95162904Y245078619D01*
X95543857Y245078619D01*
X95639095Y245031000D01*
X95686714Y244983380D01*
X95734333Y244888142D01*
X95734333Y244745285D01*
X95686714Y244650047D01*
X95639095Y244602428D01*
X95543857Y244554809D01*
X95162904Y244554809D01*
X96686714Y245031000D02*
X96591476Y245078619D01*
X96448619Y245078619D01*
X96305761Y245031000D01*
X96210523Y244935761D01*
X96162904Y244840523D01*
X96115285Y244650047D01*
X96115285Y244507190D01*
X96162904Y244316714D01*
X96210523Y244221476D01*
X96305761Y244126238D01*
X96448619Y244078619D01*
X96543857Y244078619D01*
X96686714Y244126238D01*
X96734333Y244173857D01*
X96734333Y244507190D01*
X96543857Y244507190D01*
X97496238Y244602428D02*
X97639095Y244554809D01*
X97686714Y244507190D01*
X97734333Y244411952D01*
X97734333Y244269095D01*
X97686714Y244173857D01*
X97639095Y244126238D01*
X97543857Y244078619D01*
X97162904Y244078619D01*
X97162904Y245078619D01*
X97496238Y245078619D01*
X97591476Y245031000D01*
X97639095Y244983380D01*
X97686714Y244888142D01*
X97686714Y244792904D01*
X97639095Y244697666D01*
X97591476Y244650047D01*
X97496238Y244602428D01*
X97162904Y244602428D01*
X98591476Y244745285D02*
X98591476Y244078619D01*
X98353380Y245126238D02*
X98115285Y244411952D01*
X98734333Y244411952D01*
X101336714Y245978619D02*
X100765285Y245978619D01*
X101051000Y245978619D02*
X101051000Y246978619D01*
X100955761Y246835761D01*
X100860523Y246740523D01*
X100765285Y246692904D01*
X95734333Y237601619D02*
X95401000Y238077809D01*
X95162904Y237601619D02*
X95162904Y238601619D01*
X95543857Y238601619D01*
X95639095Y238554000D01*
X95686714Y238506380D01*
X95734333Y238411142D01*
X95734333Y238268285D01*
X95686714Y238173047D01*
X95639095Y238125428D01*
X95543857Y238077809D01*
X95162904Y238077809D01*
X96686714Y238554000D02*
X96591476Y238601619D01*
X96448619Y238601619D01*
X96305761Y238554000D01*
X96210523Y238458761D01*
X96162904Y238363523D01*
X96115285Y238173047D01*
X96115285Y238030190D01*
X96162904Y237839714D01*
X96210523Y237744476D01*
X96305761Y237649238D01*
X96448619Y237601619D01*
X96543857Y237601619D01*
X96686714Y237649238D01*
X96734333Y237696857D01*
X96734333Y238030190D01*
X96543857Y238030190D01*
X97496238Y238125428D02*
X97639095Y238077809D01*
X97686714Y238030190D01*
X97734333Y237934952D01*
X97734333Y237792095D01*
X97686714Y237696857D01*
X97639095Y237649238D01*
X97543857Y237601619D01*
X97162904Y237601619D01*
X97162904Y238601619D01*
X97496238Y238601619D01*
X97591476Y238554000D01*
X97639095Y238506380D01*
X97686714Y238411142D01*
X97686714Y238315904D01*
X97639095Y238220666D01*
X97591476Y238173047D01*
X97496238Y238125428D01*
X97162904Y238125428D01*
X98067666Y238601619D02*
X98686714Y238601619D01*
X98353380Y238220666D01*
X98496238Y238220666D01*
X98591476Y238173047D01*
X98639095Y238125428D01*
X98686714Y238030190D01*
X98686714Y237792095D01*
X98639095Y237696857D01*
X98591476Y237649238D01*
X98496238Y237601619D01*
X98210523Y237601619D01*
X98115285Y237649238D01*
X98067666Y237696857D01*
X101336714Y239501619D02*
X100765285Y239501619D01*
X101051000Y239501619D02*
X101051000Y240501619D01*
X100955761Y240358761D01*
X100860523Y240263523D01*
X100765285Y240215904D01*
X95771333Y231073619D02*
X95438000Y231549809D01*
X95199904Y231073619D02*
X95199904Y232073619D01*
X95580857Y232073619D01*
X95676095Y232026000D01*
X95723714Y231978380D01*
X95771333Y231883142D01*
X95771333Y231740285D01*
X95723714Y231645047D01*
X95676095Y231597428D01*
X95580857Y231549809D01*
X95199904Y231549809D01*
X96723714Y232026000D02*
X96628476Y232073619D01*
X96485619Y232073619D01*
X96342761Y232026000D01*
X96247523Y231930761D01*
X96199904Y231835523D01*
X96152285Y231645047D01*
X96152285Y231502190D01*
X96199904Y231311714D01*
X96247523Y231216476D01*
X96342761Y231121238D01*
X96485619Y231073619D01*
X96580857Y231073619D01*
X96723714Y231121238D01*
X96771333Y231168857D01*
X96771333Y231502190D01*
X96580857Y231502190D01*
X97533238Y231597428D02*
X97676095Y231549809D01*
X97723714Y231502190D01*
X97771333Y231406952D01*
X97771333Y231264095D01*
X97723714Y231168857D01*
X97676095Y231121238D01*
X97580857Y231073619D01*
X97199904Y231073619D01*
X97199904Y232073619D01*
X97533238Y232073619D01*
X97628476Y232026000D01*
X97676095Y231978380D01*
X97723714Y231883142D01*
X97723714Y231787904D01*
X97676095Y231692666D01*
X97628476Y231645047D01*
X97533238Y231597428D01*
X97199904Y231597428D01*
X98152285Y231978380D02*
X98199904Y232026000D01*
X98295142Y232073619D01*
X98533238Y232073619D01*
X98628476Y232026000D01*
X98676095Y231978380D01*
X98723714Y231883142D01*
X98723714Y231787904D01*
X98676095Y231645047D01*
X98104666Y231073619D01*
X98723714Y231073619D01*
X101373714Y232973619D02*
X100802285Y232973619D01*
X101088000Y232973619D02*
X101088000Y233973619D01*
X100992761Y233830761D01*
X100897523Y233735523D01*
X100802285Y233687904D01*
X95734333Y224520619D02*
X95401000Y224996809D01*
X95162904Y224520619D02*
X95162904Y225520619D01*
X95543857Y225520619D01*
X95639095Y225473000D01*
X95686714Y225425380D01*
X95734333Y225330142D01*
X95734333Y225187285D01*
X95686714Y225092047D01*
X95639095Y225044428D01*
X95543857Y224996809D01*
X95162904Y224996809D01*
X96686714Y225473000D02*
X96591476Y225520619D01*
X96448619Y225520619D01*
X96305761Y225473000D01*
X96210523Y225377761D01*
X96162904Y225282523D01*
X96115285Y225092047D01*
X96115285Y224949190D01*
X96162904Y224758714D01*
X96210523Y224663476D01*
X96305761Y224568238D01*
X96448619Y224520619D01*
X96543857Y224520619D01*
X96686714Y224568238D01*
X96734333Y224615857D01*
X96734333Y224949190D01*
X96543857Y224949190D01*
X97496238Y225044428D02*
X97639095Y224996809D01*
X97686714Y224949190D01*
X97734333Y224853952D01*
X97734333Y224711095D01*
X97686714Y224615857D01*
X97639095Y224568238D01*
X97543857Y224520619D01*
X97162904Y224520619D01*
X97162904Y225520619D01*
X97496238Y225520619D01*
X97591476Y225473000D01*
X97639095Y225425380D01*
X97686714Y225330142D01*
X97686714Y225234904D01*
X97639095Y225139666D01*
X97591476Y225092047D01*
X97496238Y225044428D01*
X97162904Y225044428D01*
X98686714Y224520619D02*
X98115285Y224520619D01*
X98401000Y224520619D02*
X98401000Y225520619D01*
X98305761Y225377761D01*
X98210523Y225282523D01*
X98115285Y225234904D01*
X101336714Y226420619D02*
X100765285Y226420619D01*
X101051000Y226420619D02*
X101051000Y227420619D01*
X100955761Y227277761D01*
X100860523Y227182523D01*
X100765285Y227134904D01*
%LPC*%
G36*
G01*
X-21348000Y257595000D02*
X-21348000Y259295000D01*
G75*
G02*
X-21297000Y259346000I51000J0D01*
G01*
X-19597000Y259346000D01*
G75*
G02*
X-19546000Y259295000I0J-51000D01*
G01*
X-19546000Y257595000D01*
G75*
G02*
X-19597000Y257544000I-51000J0D01*
G01*
X-21297000Y257544000D01*
G75*
G02*
X-21348000Y257595000I0J51000D01*
G01*
G37*
D12*
X75406250Y231775000D03*
D13*
X70326250Y231775000D03*
X80486250Y231775000D03*
D14*
X-285000Y258068750D03*
X-6065000Y258068750D03*
D15*
X-7495000Y257538750D03*
X1145000Y257538750D03*
D16*
X-7495000Y261718750D03*
X1145000Y261718750D03*
G36*
G01*
X109638400Y242147000D02*
X107638400Y242147000D01*
G75*
G02*
X107587400Y242198000I0J51000D01*
G01*
X107587400Y244198000D01*
G75*
G02*
X107638400Y244249000I51000J0D01*
G01*
X109638400Y244249000D01*
G75*
G02*
X109689400Y244198000I0J-51000D01*
G01*
X109689400Y242198000D01*
G75*
G02*
X109638400Y242147000I-51000J0D01*
G01*
G37*
D17*
X111138400Y243198000D03*
X113638400Y243198000D03*
G36*
G01*
X106538400Y249047000D02*
X104538400Y249047000D01*
G75*
G02*
X104487400Y249098000I0J51000D01*
G01*
X104487400Y252298000D01*
G75*
G02*
X104538400Y252349000I51000J0D01*
G01*
X106538400Y252349000D01*
G75*
G02*
X106589400Y252298000I0J-51000D01*
G01*
X106589400Y249098000D01*
G75*
G02*
X106538400Y249047000I-51000J0D01*
G01*
G37*
G36*
G01*
X117738400Y249047000D02*
X115738400Y249047000D01*
G75*
G02*
X115687400Y249098000I0J51000D01*
G01*
X115687400Y252298000D01*
G75*
G02*
X115738400Y252349000I51000J0D01*
G01*
X117738400Y252349000D01*
G75*
G02*
X117789400Y252298000I0J-51000D01*
G01*
X117789400Y249098000D01*
G75*
G02*
X117738400Y249047000I-51000J0D01*
G01*
G37*
X108638400Y257698000D03*
X113638400Y257698000D03*
G36*
G01*
X100115000Y253484000D02*
X100115000Y252484000D01*
G75*
G02*
X100064000Y252433000I-51000J0D01*
G01*
X98564000Y252433000D01*
G75*
G02*
X98513000Y252484000I0J51000D01*
G01*
X98513000Y253484000D01*
G75*
G02*
X98564000Y253535000I51000J0D01*
G01*
X100064000Y253535000D01*
G75*
G02*
X100115000Y253484000I0J-51000D01*
G01*
G37*
G36*
G01*
X100115000Y256684000D02*
X100115000Y255684000D01*
G75*
G02*
X100064000Y255633000I-51000J0D01*
G01*
X98564000Y255633000D01*
G75*
G02*
X98513000Y255684000I0J51000D01*
G01*
X98513000Y256684000D01*
G75*
G02*
X98564000Y256735000I51000J0D01*
G01*
X100064000Y256735000D01*
G75*
G02*
X100115000Y256684000I0J-51000D01*
G01*
G37*
G36*
G01*
X95215000Y253484000D02*
X95215000Y252484000D01*
G75*
G02*
X95164000Y252433000I-51000J0D01*
G01*
X93664000Y252433000D01*
G75*
G02*
X93613000Y252484000I0J51000D01*
G01*
X93613000Y253484000D01*
G75*
G02*
X93664000Y253535000I51000J0D01*
G01*
X95164000Y253535000D01*
G75*
G02*
X95215000Y253484000I0J-51000D01*
G01*
G37*
G36*
G01*
X95215000Y256684000D02*
X95215000Y255684000D01*
G75*
G02*
X95164000Y255633000I-51000J0D01*
G01*
X93664000Y255633000D01*
G75*
G02*
X93613000Y255684000I0J51000D01*
G01*
X93613000Y256684000D01*
G75*
G02*
X93664000Y256735000I51000J0D01*
G01*
X95164000Y256735000D01*
G75*
G02*
X95215000Y256684000I0J-51000D01*
G01*
G37*
G36*
G01*
X100152000Y246931000D02*
X100152000Y245931000D01*
G75*
G02*
X100101000Y245880000I-51000J0D01*
G01*
X98601000Y245880000D01*
G75*
G02*
X98550000Y245931000I0J51000D01*
G01*
X98550000Y246931000D01*
G75*
G02*
X98601000Y246982000I51000J0D01*
G01*
X100101000Y246982000D01*
G75*
G02*
X100152000Y246931000I0J-51000D01*
G01*
G37*
G36*
G01*
X100152000Y250131000D02*
X100152000Y249131000D01*
G75*
G02*
X100101000Y249080000I-51000J0D01*
G01*
X98601000Y249080000D01*
G75*
G02*
X98550000Y249131000I0J51000D01*
G01*
X98550000Y250131000D01*
G75*
G02*
X98601000Y250182000I51000J0D01*
G01*
X100101000Y250182000D01*
G75*
G02*
X100152000Y250131000I0J-51000D01*
G01*
G37*
G36*
G01*
X95252000Y246931000D02*
X95252000Y245931000D01*
G75*
G02*
X95201000Y245880000I-51000J0D01*
G01*
X93701000Y245880000D01*
G75*
G02*
X93650000Y245931000I0J51000D01*
G01*
X93650000Y246931000D01*
G75*
G02*
X93701000Y246982000I51000J0D01*
G01*
X95201000Y246982000D01*
G75*
G02*
X95252000Y246931000I0J-51000D01*
G01*
G37*
G36*
G01*
X95252000Y250131000D02*
X95252000Y249131000D01*
G75*
G02*
X95201000Y249080000I-51000J0D01*
G01*
X93701000Y249080000D01*
G75*
G02*
X93650000Y249131000I0J51000D01*
G01*
X93650000Y250131000D01*
G75*
G02*
X93701000Y250182000I51000J0D01*
G01*
X95201000Y250182000D01*
G75*
G02*
X95252000Y250131000I0J-51000D01*
G01*
G37*
G36*
G01*
X100152000Y240454000D02*
X100152000Y239454000D01*
G75*
G02*
X100101000Y239403000I-51000J0D01*
G01*
X98601000Y239403000D01*
G75*
G02*
X98550000Y239454000I0J51000D01*
G01*
X98550000Y240454000D01*
G75*
G02*
X98601000Y240505000I51000J0D01*
G01*
X100101000Y240505000D01*
G75*
G02*
X100152000Y240454000I0J-51000D01*
G01*
G37*
G36*
G01*
X100152000Y243654000D02*
X100152000Y242654000D01*
G75*
G02*
X100101000Y242603000I-51000J0D01*
G01*
X98601000Y242603000D01*
G75*
G02*
X98550000Y242654000I0J51000D01*
G01*
X98550000Y243654000D01*
G75*
G02*
X98601000Y243705000I51000J0D01*
G01*
X100101000Y243705000D01*
G75*
G02*
X100152000Y243654000I0J-51000D01*
G01*
G37*
G36*
G01*
X95252000Y240454000D02*
X95252000Y239454000D01*
G75*
G02*
X95201000Y239403000I-51000J0D01*
G01*
X93701000Y239403000D01*
G75*
G02*
X93650000Y239454000I0J51000D01*
G01*
X93650000Y240454000D01*
G75*
G02*
X93701000Y240505000I51000J0D01*
G01*
X95201000Y240505000D01*
G75*
G02*
X95252000Y240454000I0J-51000D01*
G01*
G37*
G36*
G01*
X95252000Y243654000D02*
X95252000Y242654000D01*
G75*
G02*
X95201000Y242603000I-51000J0D01*
G01*
X93701000Y242603000D01*
G75*
G02*
X93650000Y242654000I0J51000D01*
G01*
X93650000Y243654000D01*
G75*
G02*
X93701000Y243705000I51000J0D01*
G01*
X95201000Y243705000D01*
G75*
G02*
X95252000Y243654000I0J-51000D01*
G01*
G37*
G36*
G01*
X100189000Y233926000D02*
X100189000Y232926000D01*
G75*
G02*
X100138000Y232875000I-51000J0D01*
G01*
X98638000Y232875000D01*
G75*
G02*
X98587000Y232926000I0J51000D01*
G01*
X98587000Y233926000D01*
G75*
G02*
X98638000Y233977000I51000J0D01*
G01*
X100138000Y233977000D01*
G75*
G02*
X100189000Y233926000I0J-51000D01*
G01*
G37*
G36*
G01*
X100189000Y237126000D02*
X100189000Y236126000D01*
G75*
G02*
X100138000Y236075000I-51000J0D01*
G01*
X98638000Y236075000D01*
G75*
G02*
X98587000Y236126000I0J51000D01*
G01*
X98587000Y237126000D01*
G75*
G02*
X98638000Y237177000I51000J0D01*
G01*
X100138000Y237177000D01*
G75*
G02*
X100189000Y237126000I0J-51000D01*
G01*
G37*
G36*
G01*
X95289000Y233926000D02*
X95289000Y232926000D01*
G75*
G02*
X95238000Y232875000I-51000J0D01*
G01*
X93738000Y232875000D01*
G75*
G02*
X93687000Y232926000I0J51000D01*
G01*
X93687000Y233926000D01*
G75*
G02*
X93738000Y233977000I51000J0D01*
G01*
X95238000Y233977000D01*
G75*
G02*
X95289000Y233926000I0J-51000D01*
G01*
G37*
G36*
G01*
X95289000Y237126000D02*
X95289000Y236126000D01*
G75*
G02*
X95238000Y236075000I-51000J0D01*
G01*
X93738000Y236075000D01*
G75*
G02*
X93687000Y236126000I0J51000D01*
G01*
X93687000Y237126000D01*
G75*
G02*
X93738000Y237177000I51000J0D01*
G01*
X95238000Y237177000D01*
G75*
G02*
X95289000Y237126000I0J-51000D01*
G01*
G37*
G36*
G01*
X100152000Y227373000D02*
X100152000Y226373000D01*
G75*
G02*
X100101000Y226322000I-51000J0D01*
G01*
X98601000Y226322000D01*
G75*
G02*
X98550000Y226373000I0J51000D01*
G01*
X98550000Y227373000D01*
G75*
G02*
X98601000Y227424000I51000J0D01*
G01*
X100101000Y227424000D01*
G75*
G02*
X100152000Y227373000I0J-51000D01*
G01*
G37*
G36*
G01*
X100152000Y230573000D02*
X100152000Y229573000D01*
G75*
G02*
X100101000Y229522000I-51000J0D01*
G01*
X98601000Y229522000D01*
G75*
G02*
X98550000Y229573000I0J51000D01*
G01*
X98550000Y230573000D01*
G75*
G02*
X98601000Y230624000I51000J0D01*
G01*
X100101000Y230624000D01*
G75*
G02*
X100152000Y230573000I0J-51000D01*
G01*
G37*
G36*
G01*
X95252000Y227373000D02*
X95252000Y226373000D01*
G75*
G02*
X95201000Y226322000I-51000J0D01*
G01*
X93701000Y226322000D01*
G75*
G02*
X93650000Y226373000I0J51000D01*
G01*
X93650000Y227373000D01*
G75*
G02*
X93701000Y227424000I51000J0D01*
G01*
X95201000Y227424000D01*
G75*
G02*
X95252000Y227373000I0J-51000D01*
G01*
G37*
G36*
G01*
X95252000Y230573000D02*
X95252000Y229573000D01*
G75*
G02*
X95201000Y229522000I-51000J0D01*
G01*
X93701000Y229522000D01*
G75*
G02*
X93650000Y229573000I0J51000D01*
G01*
X93650000Y230573000D01*
G75*
G02*
X93701000Y230624000I51000J0D01*
G01*
X95201000Y230624000D01*
G75*
G02*
X95252000Y230573000I0J-51000D01*
G01*
G37*
D12*
X68262500Y188912500D03*
D13*
X63182500Y188912500D03*
X73342500Y188912500D03*
D12*
X42068750Y193675000D03*
D13*
X36988750Y193675000D03*
X47148750Y193675000D03*
D12*
X-29368750Y193675000D03*
D13*
X-34448750Y193675000D03*
X-24288750Y193675000D03*
D18*
X-79368650Y186690000D03*
X20631150Y186690000D03*
D12*
X-79368650Y201930000D03*
X20631150Y201930000D03*
X-100806250Y193675000D03*
D13*
X-105886250Y193675000D03*
X-95726250Y193675000D03*
D12*
X-124618750Y193675000D03*
D13*
X-129698750Y193675000D03*
X-119538750Y193675000D03*
D12*
X106362500Y188912500D03*
D13*
X101282500Y188912500D03*
X111442500Y188912500D03*
D12*
X87312500Y188912500D03*
D13*
X82232500Y188912500D03*
X92392500Y188912500D03*
D12*
X44450000Y193675000D03*
D13*
X39370000Y193675000D03*
X49530000Y193675000D03*
D12*
X25400000Y193675000D03*
D13*
X20320000Y193675000D03*
X30480000Y193675000D03*
D12*
X-5556250Y193675000D03*
D13*
X-10636250Y193675000D03*
X-476250Y193675000D03*
D18*
X-17462500Y186690000D03*
X6350000Y186690000D03*
D12*
X-17462500Y201930000D03*
X6350000Y201930000D03*
X-31750000Y193675000D03*
D13*
X-36830000Y193675000D03*
X-26670000Y193675000D03*
D18*
X-88900000Y186690000D03*
X25400000Y186690000D03*
D12*
X-88900000Y201930000D03*
X25400000Y201930000D03*
X-53181250Y193675000D03*
D13*
X-58261250Y193675000D03*
X-48101250Y193675000D03*
D18*
X-65087500Y186690000D03*
X-41275000Y186690000D03*
D12*
X-65087500Y201930000D03*
X-41275000Y201930000D03*
X-88900000Y193675000D03*
D13*
X-93980000Y193675000D03*
X-83820000Y193675000D03*
D12*
X-107950000Y193675000D03*
D13*
X-113030000Y193675000D03*
X-102870000Y193675000D03*
D12*
X-127000000Y193675000D03*
D13*
X-132080000Y193675000D03*
X-121920000Y193675000D03*
D12*
X111125000Y212725000D03*
D13*
X106045000Y212725000D03*
X116205000Y212725000D03*
D12*
X87312500Y207962500D03*
D13*
X82232500Y207962500D03*
X92392500Y207962500D03*
D12*
X61118750Y212725000D03*
D13*
X56038750Y212725000D03*
X66198750Y212725000D03*
D12*
X39687500Y212725000D03*
D13*
X34607500Y212725000D03*
X44767500Y212725000D03*
D12*
X20637500Y212725000D03*
D13*
X15557500Y212725000D03*
X25717500Y212725000D03*
D12*
X1587500Y212725000D03*
D13*
X-3492500Y212725000D03*
X6667500Y212725000D03*
D12*
X-17462500Y212725000D03*
D13*
X-22542500Y212725000D03*
X-12382500Y212725000D03*
D12*
X-36512500Y212725000D03*
D13*
X-41592500Y212725000D03*
X-31432500Y212725000D03*
D12*
X-55562500Y212725000D03*
D13*
X-60642500Y212725000D03*
X-50482500Y212725000D03*
D12*
X-74612500Y212725000D03*
D13*
X-79692500Y212725000D03*
X-69532500Y212725000D03*
D12*
X-93662500Y212725000D03*
D13*
X-98742500Y212725000D03*
X-88582500Y212725000D03*
D12*
X-119856250Y212725000D03*
D13*
X-124936250Y212725000D03*
X-114776250Y212725000D03*
D12*
X111125000Y231775000D03*
D13*
X106045000Y231775000D03*
X116205000Y231775000D03*
D12*
X49212500Y231775000D03*
D13*
X44132500Y231775000D03*
X54292500Y231775000D03*
D12*
X30162500Y231775000D03*
D13*
X25082500Y231775000D03*
X35242500Y231775000D03*
D12*
X11112500Y231775000D03*
D13*
X6032500Y231775000D03*
X16192500Y231775000D03*
D12*
X-7937500Y231775000D03*
D13*
X-13017500Y231775000D03*
X-2857500Y231775000D03*
D12*
X-26987500Y231775000D03*
D13*
X-32067500Y231775000D03*
X-21907500Y231775000D03*
D12*
X-46037500Y231775000D03*
D13*
X-51117500Y231775000D03*
X-40957500Y231775000D03*
D12*
X-65087500Y231775000D03*
D13*
X-70167500Y231775000D03*
X-60007500Y231775000D03*
D12*
X-84137500Y231775000D03*
D13*
X-89217500Y231775000D03*
X-79057500Y231775000D03*
D12*
X-103187500Y231775000D03*
D13*
X-108267500Y231775000D03*
X-98107500Y231775000D03*
D12*
X-124618750Y231775000D03*
D13*
X-129698750Y231775000D03*
X-119538750Y231775000D03*
D12*
X111125000Y250825000D03*
D13*
X106045000Y250825000D03*
X116205000Y250825000D03*
D12*
X82550000Y250825000D03*
D13*
X77470000Y250825000D03*
X87630000Y250825000D03*
D12*
X63500000Y250825000D03*
D13*
X58420000Y250825000D03*
X68580000Y250825000D03*
D12*
X44450000Y250825000D03*
D13*
X39370000Y250825000D03*
X49530000Y250825000D03*
D12*
X25400000Y250825000D03*
D13*
X20320000Y250825000D03*
X30480000Y250825000D03*
D12*
X6350000Y250825000D03*
D13*
X1270000Y250825000D03*
X11430000Y250825000D03*
D12*
X-12700000Y250825000D03*
D13*
X-17780000Y250825000D03*
X-7620000Y250825000D03*
D12*
X-31750000Y250825000D03*
D13*
X-36830000Y250825000D03*
X-26670000Y250825000D03*
D12*
X-50800000Y250825000D03*
D13*
X-55880000Y250825000D03*
X-45720000Y250825000D03*
D12*
X-69850000Y250825000D03*
D13*
X-74930000Y250825000D03*
X-64770000Y250825000D03*
D12*
X-88900000Y250825000D03*
D13*
X-93980000Y250825000D03*
X-83820000Y250825000D03*
D12*
X-107950000Y250825000D03*
D13*
X-113030000Y250825000D03*
X-102870000Y250825000D03*
D12*
X-127000000Y250825000D03*
D13*
X-132080000Y250825000D03*
X-121920000Y250825000D03*
M02*
