M48
; DRILL file {KiCad 5.1.7-a382d34a8~87~ubuntu20.04.1} date Thu Oct  8 17:39:58 2020
; FORMAT={-:-/ absolute / inch / decimal}
; #@! TF.CreationDate,2020-10-08T17:39:58-07:00
; #@! TF.GenerationSoftware,Kicad,Pcbnew,5.1.7-a382d34a8~87~ubuntu20.04.1
; #@! TF.FileFunction,NonPlated,1,2,NPTH
FMAT,2
INCH
T1C0.0256
T2C0.0689
T3C0.1200
T4C0.1570
%
G90
G05
T1
X-0.2388Y10.1602
X-0.0112Y10.1602
T2
X-4.45Y9.875
X-4.05Y9.875
X-3.7Y7.625
X-3.3Y7.625
X-5.2Y7.625
X-4.8Y7.625
X-2.2Y9.875
X-1.8Y9.875
X-3.1375Y8.375
X-2.7375Y8.375
X-4.45Y7.625
X-4.05Y7.625
X3.2375Y8.1875
X3.6375Y8.1875
X0.9875Y9.125
X1.3875Y9.125
X-0.8875Y8.375
X-0.4875Y8.375
X-3.8875Y8.375
X-3.4875Y8.375
X-5.2Y9.875
X-4.8Y9.875
X-4.1688Y7.625
X-3.7687Y7.625
X-1.2625Y9.125
X-0.8625Y9.125
X1.55Y9.875
X1.95Y9.875
X-5.1063Y9.125
X-4.7062Y9.125
X-2.0125Y9.125
X-1.6125Y9.125
X2.2062Y8.375
X2.6062Y8.375
X1.3625Y8.375
X1.7625Y8.375
X-2.3875Y8.375
X-1.9875Y8.375
X-0.7Y9.875
X-0.3Y9.875
X4.175Y9.125
X4.575Y9.125
X-0.4188Y7.625
X-0.0187Y7.625
X1.4563Y7.625
X1.8562Y7.625
X-5.1063Y7.625
X-4.7062Y7.625
X-1.6375Y8.375
X-1.2375Y8.375
X-0.5125Y9.125
X-0.1125Y9.125
X2.7687Y9.125
X3.1687Y9.125
X-3.7Y9.875
X-3.3Y9.875
X1.7375Y9.125
X2.1375Y9.125
X-1.3562Y7.625
X-0.9562Y7.625
X0.8Y7.625
X1.2Y7.625
X-0.1375Y8.375
X0.2625Y8.375
X4.175Y9.875
X4.575Y9.875
X3.2375Y7.4375
X3.6375Y7.4375
X-4.9188Y8.375
X-4.5187Y8.375
X2.3Y9.875
X2.7Y9.875
X-3.5125Y9.125
X-3.1125Y9.125
X-4.2625Y9.125
X-3.8625Y9.125
X0.6125Y8.375
X1.0125Y8.375
X1.55Y7.625
X1.95Y7.625
X2.4875Y7.4375
X2.8875Y7.4375
X-2.2937Y7.625
X-1.8938Y7.625
X3.9875Y7.4375
X4.3875Y7.4375
X-2.95Y9.875
X-2.55Y9.875
X-1.45Y9.875
X-1.05Y9.875
X0.05Y9.875
X0.45Y9.875
X0.8Y9.875
X1.2Y9.875
X0.2375Y9.125
X0.6375Y9.125
X3.05Y9.875
X3.45Y9.875
X-2.7625Y9.125
X-2.3625Y9.125
X4.175Y8.375
X4.575Y8.375
X-1.45Y7.625
X-1.05Y7.625
T3
X-3.1248Y7.35
X-1.625Y7.35
X-3.5Y7.35
X-0.6875Y7.35
X0.25Y7.35
X0.8123Y7.35
X-2.5625Y7.35
X1.0Y7.35
T4
X-4.25Y9.875
X-3.5Y7.625
X-5.0Y7.625
X-2.0Y9.875
X-2.9375Y8.375
X-4.25Y7.625
X3.4375Y8.1875
X1.1875Y9.125
X-0.6875Y8.375
X-3.6875Y8.375
X-5.0Y9.875
X-3.9688Y7.625
X-1.0625Y9.125
X1.75Y9.875
X-4.9062Y9.125
X-1.8125Y9.125
X2.4062Y8.375
X1.5625Y8.375
X-2.1875Y8.375
X-0.5Y9.875
X4.375Y9.125
X-0.6875Y7.95
X-0.2188Y7.625
X0.25Y7.95
X1.6562Y7.625
X-4.9062Y7.625
X-1.4375Y8.375
X-0.3125Y9.125
X2.9688Y9.125
X-3.5Y9.875
X1.9375Y9.125
X-3.1248Y7.95
X-1.1562Y7.625
X0.8123Y7.95
X1.0Y7.625
X0.0625Y8.375
X4.375Y9.875
X3.4375Y7.4375
X-4.7188Y8.375
X2.5Y9.875
X-3.3125Y9.125
X-4.0625Y9.125
X0.8125Y8.375
X1.75Y7.625
X2.6875Y7.4375
X-2.5625Y7.95
X-2.0938Y7.625
X-1.625Y7.95
X4.1875Y7.4375
X-2.75Y9.875
X-1.25Y9.875
X0.25Y9.875
X1.0Y9.875
X0.4375Y9.125
X3.25Y9.875
X-2.5625Y9.125
X4.375Y8.375
X-3.5Y7.95
X-1.25Y7.625
X1.0Y7.95
T0
M30
