M48
; DRILL file {KiCad 5.1.7-a382d34a8~87~ubuntu20.04.1} date Thu Oct  8 17:39:58 2020
; FORMAT={-:-/ absolute / inch / decimal}
; #@! TF.CreationDate,2020-10-08T17:39:58-07:00
; #@! TF.GenerationSoftware,Kicad,Pcbnew,5.1.7-a382d34a8~87~ubuntu20.04.1
; #@! TF.FileFunction,Plated,1,2,PTH
FMAT,2
INCH
T1C0.0157
T2C0.0236
T3C0.0394
T4C0.0579
T5C0.0591
%
G90
G05
T1
X-0.585Y9.745
X-0.376Y9.906
X-0.19Y10.0025
X-0.0846Y9.9618
X0.09Y9.745
X1.855Y9.5461
X1.895Y9.4425
X1.9Y9.5461
X1.915Y9.4839
X1.99Y9.4553
X2.155Y9.0
X2.2635Y8.9715
X2.5223Y9.6623
X2.525Y8.9625
X2.635Y9.0975
X2.7283Y9.3558
X2.8Y9.0
X2.845Y9.54
X2.865Y9.405
X2.935Y9.71
X3.44Y9.04
X3.4702Y9.0652
X3.5Y9.09
T3
X4.2771Y10.1456
X4.2771Y9.5747
X4.3755Y9.5747
X4.474Y10.1456
X4.474Y9.5747
X-0.805Y10.175
T4
X0.6625Y8.475
X0.9125Y8.575
X1.6Y7.725
X1.85Y7.825
X2.5375Y7.5375
X2.7875Y7.6375
X-2.2437Y7.725
X-1.9937Y7.825
X4.0375Y7.5375
X4.2875Y7.6375
X-2.9Y9.975
X-2.65Y10.075
X-1.4Y9.975
X-1.15Y10.075
X0.1Y9.975
X0.35Y10.075
X0.85Y9.975
X1.1Y10.075
X0.2875Y9.225
X0.5375Y9.325
X3.1Y9.975
X3.35Y10.075
X-2.7125Y9.225
X-2.4625Y9.325
X4.225Y8.475
X4.475Y8.575
X-1.4Y7.725
X-1.15Y7.825
X-4.4Y9.975
X-4.15Y10.075
X-3.65Y7.725
X-3.4Y7.825
X-5.15Y7.725
X-4.9Y7.825
X-2.15Y9.975
X-1.9Y10.075
X-3.0875Y8.475
X-2.8375Y8.575
X-4.4Y7.725
X-4.15Y7.825
X3.2875Y8.2875
X3.5375Y8.3875
X1.0375Y9.225
X1.2875Y9.325
X-0.8375Y8.475
X-0.5875Y8.575
X-3.8375Y8.475
X-3.5875Y8.575
X-5.15Y9.975
X-4.9Y10.075
X-4.1187Y7.725
X-3.8687Y7.825
X-1.2125Y9.225
X-0.9625Y9.325
X1.6Y9.975
X1.85Y10.075
X-5.0562Y9.225
X-4.8062Y9.325
X-1.9625Y9.225
X-1.7125Y9.325
X2.2563Y8.475
X2.5063Y8.575
X1.4125Y8.475
X1.6625Y8.575
X-2.3375Y8.475
X-2.0875Y8.575
X-0.65Y9.975
X-0.4Y10.075
X4.225Y9.225
X4.475Y9.325
X-0.3687Y7.725
X-0.1187Y7.825
X1.5062Y7.725
X1.7562Y7.825
X-5.0562Y7.725
X-4.8062Y7.825
X-1.5875Y8.475
X-1.3375Y8.575
X-0.4625Y9.225
X-0.2125Y9.325
X2.8188Y9.225
X3.0688Y9.325
X-3.65Y9.975
X-3.4Y10.075
X1.7875Y9.225
X2.0375Y9.325
X-1.3062Y7.725
X-1.0562Y7.825
X0.85Y7.725
X1.1Y7.825
X-0.0875Y8.475
X0.1625Y8.575
X4.225Y9.975
X4.475Y10.075
X3.2875Y7.5375
X3.5375Y7.6375
X-4.8687Y8.475
X-4.6187Y8.575
X2.35Y9.975
X2.6Y10.075
X-3.4625Y9.225
X-3.2125Y9.325
X-4.2125Y9.225
X-3.9625Y9.325
T2
G00X-0.2951Y10.3157
M15
G01X-0.2951Y10.2921
M16
G05
G00X-0.2951Y10.161
M15
G01X-0.2951Y10.1177
M16
G05
G00X0.0451Y10.3157
M15
G01X0.0451Y10.2921
M16
G05
G00X0.0451Y10.161
M15
G01X0.0451Y10.1177
M16
G05
T5
G00X4.1551Y9.8444
M15
G01X4.1551Y9.8956
M16
G05
G00X4.596Y9.8444
M15
G01X4.596Y9.8956
M16
G05
T0
M30
