G04 #@! TF.GenerationSoftware,KiCad,Pcbnew,5.1.7*
G04 #@! TF.CreationDate,2020-10-07T19:53:18-07:00*
G04 #@! TF.ProjectId,Program Yoink,50726f67-7261-46d2-9059-6f696e6b2e6b,rev?*
G04 #@! TF.SameCoordinates,Original*
G04 #@! TF.FileFunction,Paste,Bot*
G04 #@! TF.FilePolarity,Positive*
%FSLAX46Y46*%
G04 Gerber Fmt 4.6, Leading zero omitted, Abs format (unit mm)*
G04 Created by KiCad (PCBNEW 5.1.7) date 2020-10-07 19:53:18*
%MOMM*%
%LPD*%
G01*
G04 APERTURE LIST*
%ADD10R,0.600000X2.450000*%
%ADD11R,0.300000X2.450000*%
%ADD12R,0.700000X1.000000*%
%ADD13R,0.700000X0.600000*%
%ADD14R,1.400000X1.200000*%
%ADD15R,1.800000X1.100000*%
%ADD16R,1.600000X0.550000*%
%ADD17R,0.550000X1.600000*%
%ADD18R,1.200000X0.900000*%
G04 APERTURE END LIST*
G36*
G01*
X76433500Y224738250D02*
X76433500Y223825750D01*
G75*
G02*
X76189750Y223582000I-243750J0D01*
G01*
X75702250Y223582000D01*
G75*
G02*
X75458500Y223825750I0J243750D01*
G01*
X75458500Y224738250D01*
G75*
G02*
X75702250Y224982000I243750J0D01*
G01*
X76189750Y224982000D01*
G75*
G02*
X76433500Y224738250I0J-243750D01*
G01*
G37*
G36*
G01*
X78308500Y224738250D02*
X78308500Y223825750D01*
G75*
G02*
X78064750Y223582000I-243750J0D01*
G01*
X77577250Y223582000D01*
G75*
G02*
X77333500Y223825750I0J243750D01*
G01*
X77333500Y224738250D01*
G75*
G02*
X77577250Y224982000I243750J0D01*
G01*
X78064750Y224982000D01*
G75*
G02*
X78308500Y224738250I0J-243750D01*
G01*
G37*
D10*
X50000Y256123750D03*
X-6400000Y256123750D03*
X-725000Y256123750D03*
X-5625000Y256123750D03*
D11*
X-4925000Y256123750D03*
X-1425000Y256123750D03*
X-4425000Y256123750D03*
X-1925000Y256123750D03*
X-3925000Y256123750D03*
X-2425000Y256123750D03*
X-2925000Y256123750D03*
X-3425000Y256123750D03*
D12*
X-2159000Y251079000D03*
D13*
X-4159000Y251279000D03*
X-2159000Y249379000D03*
X-4159000Y249379000D03*
G36*
G01*
X4551500Y258901250D02*
X4551500Y257988750D01*
G75*
G02*
X4307750Y257745000I-243750J0D01*
G01*
X3820250Y257745000D01*
G75*
G02*
X3576500Y257988750I0J243750D01*
G01*
X3576500Y258901250D01*
G75*
G02*
X3820250Y259145000I243750J0D01*
G01*
X4307750Y259145000D01*
G75*
G02*
X4551500Y258901250I0J-243750D01*
G01*
G37*
G36*
G01*
X6426500Y258901250D02*
X6426500Y257988750D01*
G75*
G02*
X6182750Y257745000I-243750J0D01*
G01*
X5695250Y257745000D01*
G75*
G02*
X5451500Y257988750I0J243750D01*
G01*
X5451500Y258901250D01*
G75*
G02*
X5695250Y259145000I243750J0D01*
G01*
X6182750Y259145000D01*
G75*
G02*
X6426500Y258901250I0J-243750D01*
G01*
G37*
G36*
G01*
X-9068750Y247924500D02*
X-9981250Y247924500D01*
G75*
G02*
X-10225000Y248168250I0J243750D01*
G01*
X-10225000Y248655750D01*
G75*
G02*
X-9981250Y248899500I243750J0D01*
G01*
X-9068750Y248899500D01*
G75*
G02*
X-8825000Y248655750I0J-243750D01*
G01*
X-8825000Y248168250D01*
G75*
G02*
X-9068750Y247924500I-243750J0D01*
G01*
G37*
G36*
G01*
X-9068750Y246049500D02*
X-9981250Y246049500D01*
G75*
G02*
X-10225000Y246293250I0J243750D01*
G01*
X-10225000Y246780750D01*
G75*
G02*
X-9981250Y247024500I243750J0D01*
G01*
X-9068750Y247024500D01*
G75*
G02*
X-8825000Y246780750I0J-243750D01*
G01*
X-8825000Y246293250D01*
G75*
G02*
X-9068750Y246049500I-243750J0D01*
G01*
G37*
G36*
G01*
X9388000Y243322000D02*
X9388000Y242072000D01*
G75*
G02*
X9138000Y241822000I-250000J0D01*
G01*
X8388000Y241822000D01*
G75*
G02*
X8138000Y242072000I0J250000D01*
G01*
X8138000Y243322000D01*
G75*
G02*
X8388000Y243572000I250000J0D01*
G01*
X9138000Y243572000D01*
G75*
G02*
X9388000Y243322000I0J-250000D01*
G01*
G37*
G36*
G01*
X12188000Y243322000D02*
X12188000Y242072000D01*
G75*
G02*
X11938000Y241822000I-250000J0D01*
G01*
X11188000Y241822000D01*
G75*
G02*
X10938000Y242072000I0J250000D01*
G01*
X10938000Y243322000D01*
G75*
G02*
X11188000Y243572000I250000J0D01*
G01*
X11938000Y243572000D01*
G75*
G02*
X12188000Y243322000I0J-250000D01*
G01*
G37*
D14*
X56590658Y243956223D03*
X58790658Y243956223D03*
X58790658Y245656223D03*
X56590658Y245656223D03*
D15*
X73481000Y221306000D03*
X79681000Y217606000D03*
X73481000Y217606000D03*
X79681000Y221306000D03*
G36*
G01*
X66028250Y228101500D02*
X66940750Y228101500D01*
G75*
G02*
X67184500Y227857750I0J-243750D01*
G01*
X67184500Y227370250D01*
G75*
G02*
X66940750Y227126500I-243750J0D01*
G01*
X66028250Y227126500D01*
G75*
G02*
X65784500Y227370250I0J243750D01*
G01*
X65784500Y227857750D01*
G75*
G02*
X66028250Y228101500I243750J0D01*
G01*
G37*
G36*
G01*
X66028250Y229976500D02*
X66940750Y229976500D01*
G75*
G02*
X67184500Y229732750I0J-243750D01*
G01*
X67184500Y229245250D01*
G75*
G02*
X66940750Y229001500I-243750J0D01*
G01*
X66028250Y229001500D01*
G75*
G02*
X65784500Y229245250I0J243750D01*
G01*
X65784500Y229732750D01*
G75*
G02*
X66028250Y229976500I243750J0D01*
G01*
G37*
G36*
G01*
X45009750Y240293500D02*
X45922250Y240293500D01*
G75*
G02*
X46166000Y240049750I0J-243750D01*
G01*
X46166000Y239562250D01*
G75*
G02*
X45922250Y239318500I-243750J0D01*
G01*
X45009750Y239318500D01*
G75*
G02*
X44766000Y239562250I0J243750D01*
G01*
X44766000Y240049750D01*
G75*
G02*
X45009750Y240293500I243750J0D01*
G01*
G37*
G36*
G01*
X45009750Y242168500D02*
X45922250Y242168500D01*
G75*
G02*
X46166000Y241924750I0J-243750D01*
G01*
X46166000Y241437250D01*
G75*
G02*
X45922250Y241193500I-243750J0D01*
G01*
X45009750Y241193500D01*
G75*
G02*
X44766000Y241437250I0J243750D01*
G01*
X44766000Y241924750D01*
G75*
G02*
X45009750Y242168500I243750J0D01*
G01*
G37*
G36*
G01*
X51561050Y244465500D02*
X50648550Y244465500D01*
G75*
G02*
X50404800Y244709250I0J243750D01*
G01*
X50404800Y245196750D01*
G75*
G02*
X50648550Y245440500I243750J0D01*
G01*
X51561050Y245440500D01*
G75*
G02*
X51804800Y245196750I0J-243750D01*
G01*
X51804800Y244709250D01*
G75*
G02*
X51561050Y244465500I-243750J0D01*
G01*
G37*
G36*
G01*
X51561050Y242590500D02*
X50648550Y242590500D01*
G75*
G02*
X50404800Y242834250I0J243750D01*
G01*
X50404800Y243321750D01*
G75*
G02*
X50648550Y243565500I243750J0D01*
G01*
X51561050Y243565500D01*
G75*
G02*
X51804800Y243321750I0J-243750D01*
G01*
X51804800Y242834250D01*
G75*
G02*
X51561050Y242590500I-243750J0D01*
G01*
G37*
G36*
G01*
X63321250Y246180000D02*
X62408750Y246180000D01*
G75*
G02*
X62165000Y246423750I0J243750D01*
G01*
X62165000Y246911250D01*
G75*
G02*
X62408750Y247155000I243750J0D01*
G01*
X63321250Y247155000D01*
G75*
G02*
X63565000Y246911250I0J-243750D01*
G01*
X63565000Y246423750D01*
G75*
G02*
X63321250Y246180000I-243750J0D01*
G01*
G37*
G36*
G01*
X63321250Y244305000D02*
X62408750Y244305000D01*
G75*
G02*
X62165000Y244548750I0J243750D01*
G01*
X62165000Y245036250D01*
G75*
G02*
X62408750Y245280000I243750J0D01*
G01*
X63321250Y245280000D01*
G75*
G02*
X63565000Y245036250I0J-243750D01*
G01*
X63565000Y244548750D01*
G75*
G02*
X63321250Y244305000I-243750J0D01*
G01*
G37*
G36*
G01*
X54102950Y234426100D02*
X55015450Y234426100D01*
G75*
G02*
X55259200Y234182350I0J-243750D01*
G01*
X55259200Y233694850D01*
G75*
G02*
X55015450Y233451100I-243750J0D01*
G01*
X54102950Y233451100D01*
G75*
G02*
X53859200Y233694850I0J243750D01*
G01*
X53859200Y234182350D01*
G75*
G02*
X54102950Y234426100I243750J0D01*
G01*
G37*
G36*
G01*
X54102950Y236301100D02*
X55015450Y236301100D01*
G75*
G02*
X55259200Y236057350I0J-243750D01*
G01*
X55259200Y235569850D01*
G75*
G02*
X55015450Y235326100I-243750J0D01*
G01*
X54102950Y235326100D01*
G75*
G02*
X53859200Y235569850I0J243750D01*
G01*
X53859200Y236057350D01*
G75*
G02*
X54102950Y236301100I243750J0D01*
G01*
G37*
G36*
G01*
X61213050Y245257500D02*
X60300550Y245257500D01*
G75*
G02*
X60056800Y245501250I0J243750D01*
G01*
X60056800Y245988750D01*
G75*
G02*
X60300550Y246232500I243750J0D01*
G01*
X61213050Y246232500D01*
G75*
G02*
X61456800Y245988750I0J-243750D01*
G01*
X61456800Y245501250D01*
G75*
G02*
X61213050Y245257500I-243750J0D01*
G01*
G37*
G36*
G01*
X61213050Y243382500D02*
X60300550Y243382500D01*
G75*
G02*
X60056800Y243626250I0J243750D01*
G01*
X60056800Y244113750D01*
G75*
G02*
X60300550Y244357500I243750J0D01*
G01*
X61213050Y244357500D01*
G75*
G02*
X61456800Y244113750I0J-243750D01*
G01*
X61456800Y243626250D01*
G75*
G02*
X61213050Y243382500I-243750J0D01*
G01*
G37*
G36*
G01*
X53391750Y244357500D02*
X54304250Y244357500D01*
G75*
G02*
X54548000Y244113750I0J-243750D01*
G01*
X54548000Y243626250D01*
G75*
G02*
X54304250Y243382500I-243750J0D01*
G01*
X53391750Y243382500D01*
G75*
G02*
X53148000Y243626250I0J243750D01*
G01*
X53148000Y244113750D01*
G75*
G02*
X53391750Y244357500I243750J0D01*
G01*
G37*
G36*
G01*
X53391750Y246232500D02*
X54304250Y246232500D01*
G75*
G02*
X54548000Y245988750I0J-243750D01*
G01*
X54548000Y245501250D01*
G75*
G02*
X54304250Y245257500I-243750J0D01*
G01*
X53391750Y245257500D01*
G75*
G02*
X53148000Y245501250I0J243750D01*
G01*
X53148000Y245988750D01*
G75*
G02*
X53391750Y246232500I243750J0D01*
G01*
G37*
D16*
X57684505Y239978497D03*
X57684505Y239178497D03*
X57684505Y238378497D03*
X57684505Y237578497D03*
X57684505Y236778497D03*
X57684505Y235978497D03*
X57684505Y235178497D03*
X57684505Y234378497D03*
D17*
X59134505Y232928497D03*
X59934505Y232928497D03*
X60734505Y232928497D03*
X61534505Y232928497D03*
X62334505Y232928497D03*
X63134505Y232928497D03*
X63934505Y232928497D03*
X64734505Y232928497D03*
D16*
X66184505Y234378497D03*
X66184505Y235178497D03*
X66184505Y235978497D03*
X66184505Y236778497D03*
X66184505Y237578497D03*
X66184505Y238378497D03*
X66184505Y239178497D03*
X66184505Y239978497D03*
D17*
X64734505Y241428497D03*
X63934505Y241428497D03*
X63134505Y241428497D03*
X62334505Y241428497D03*
X61534505Y241428497D03*
X60734505Y241428497D03*
X59934505Y241428497D03*
X59134505Y241428497D03*
D18*
X76454000Y188594000D03*
X76454000Y185294000D03*
X98171000Y188595000D03*
X98171000Y185295000D03*
X95504000Y188595000D03*
X95504000Y185295000D03*
X52705000Y193420000D03*
X52705000Y190120000D03*
X33655000Y193420000D03*
X33655000Y190120000D03*
X2794000Y193420000D03*
X2794000Y190120000D03*
X-21082000Y193420000D03*
X-21082000Y190120000D03*
X-44831000Y193420000D03*
X-44831000Y190120000D03*
X-80645000Y193420000D03*
X-80645000Y190120000D03*
X-97663000Y192149000D03*
X-97663000Y188849000D03*
X-116332000Y193421000D03*
X-116332000Y190121000D03*
X102997000Y212978000D03*
X102997000Y209678000D03*
X95504000Y208279000D03*
X95504000Y204979000D03*
X69469000Y212851000D03*
X69469000Y209551000D03*
X47879000Y212851000D03*
X47879000Y209551000D03*
X28829000Y212851000D03*
X28829000Y209551000D03*
X9779000Y212851000D03*
X9779000Y209551000D03*
X-9271000Y212851000D03*
X-9271000Y209551000D03*
X-28321000Y212851000D03*
X-28321000Y209551000D03*
X-47371000Y212851000D03*
X-47371000Y209551000D03*
X-66421000Y212851000D03*
X-66421000Y209551000D03*
X-85471000Y212851000D03*
X-85471000Y209551000D03*
X-111379000Y212851000D03*
X-111379000Y209551000D03*
X102895400Y231902000D03*
X102895400Y228602000D03*
X83693000Y231901000D03*
X83693000Y228601000D03*
X41021000Y231901000D03*
X41021000Y228601000D03*
X38354000Y231901000D03*
X38354000Y228601000D03*
X19304000Y231901000D03*
X19304000Y228601000D03*
X254000Y231901000D03*
X254000Y228601000D03*
X-18796000Y231901000D03*
X-18796000Y228601000D03*
X-37846000Y231901000D03*
X-37846000Y228601000D03*
X-56896000Y231901000D03*
X-56896000Y228601000D03*
X-75946000Y231901000D03*
X-75946000Y228601000D03*
X-94869000Y231901000D03*
X-94869000Y228601000D03*
X-116078000Y231901000D03*
X-116078000Y228601000D03*
X102870000Y250850400D03*
X102870000Y247550400D03*
X90805000Y250825000D03*
X90805000Y247525000D03*
X71755000Y250824000D03*
X71755000Y247524000D03*
X52705000Y250824000D03*
X52705000Y247524000D03*
X33655000Y250824000D03*
X33655000Y247524000D03*
X14605000Y250824000D03*
X14605000Y247524000D03*
X-20955000Y250825000D03*
X-20955000Y247525000D03*
X-23495000Y250824000D03*
X-23495000Y247524000D03*
X-42545000Y250824000D03*
X-42545000Y247524000D03*
X-61595000Y250824000D03*
X-61595000Y247524000D03*
X-80518000Y250824000D03*
X-80518000Y247524000D03*
X-99568000Y250824000D03*
X-99568000Y247524000D03*
X-118745000Y250824000D03*
X-118745000Y247524000D03*
M02*
