G04 #@! TF.GenerationSoftware,KiCad,Pcbnew,5.1.7*
G04 #@! TF.CreationDate,2020-10-07T19:53:18-07:00*
G04 #@! TF.ProjectId,Program Yoink,50726f67-7261-46d2-9059-6f696e6b2e6b,rev?*
G04 #@! TF.SameCoordinates,Original*
G04 #@! TF.FileFunction,Soldermask,Bot*
G04 #@! TF.FilePolarity,Negative*
%FSLAX46Y46*%
G04 Gerber Fmt 4.6, Leading zero omitted, Abs format (unit mm)*
G04 Created by KiCad (PCBNEW 5.1.7) date 2020-10-07 19:53:18*
%MOMM*%
%LPD*%
G01*
G04 APERTURE LIST*
%ADD10C,2.352000*%
%ADD11C,4.089800*%
%ADD12C,1.852000*%
%ADD13C,0.752000*%
%ADD14C,2.102000*%
%ADD15C,3.150000*%
%ADD16C,0.100000*%
G04 APERTURE END LIST*
G36*
G01*
X-21348000Y257595000D02*
X-21348000Y259295000D01*
G75*
G02*
X-21297000Y259346000I51000J0D01*
G01*
X-19597000Y259346000D01*
G75*
G02*
X-19546000Y259295000I0J-51000D01*
G01*
X-19546000Y257595000D01*
G75*
G02*
X-19597000Y257544000I-51000J0D01*
G01*
X-21297000Y257544000D01*
G75*
G02*
X-21348000Y257595000I0J51000D01*
G01*
G37*
D10*
X77946250Y236855000D03*
D11*
X75406250Y231775000D03*
D10*
X71596250Y234315000D03*
D12*
X70326250Y231775000D03*
X80486250Y231775000D03*
G36*
G01*
X76484500Y224763750D02*
X76484500Y223800250D01*
G75*
G02*
X76215250Y223531000I-269250J0D01*
G01*
X75676750Y223531000D01*
G75*
G02*
X75407500Y223800250I0J269250D01*
G01*
X75407500Y224763750D01*
G75*
G02*
X75676750Y225033000I269250J0D01*
G01*
X76215250Y225033000D01*
G75*
G02*
X76484500Y224763750I0J-269250D01*
G01*
G37*
G36*
G01*
X78359500Y224763750D02*
X78359500Y223800250D01*
G75*
G02*
X78090250Y223531000I-269250J0D01*
G01*
X77551750Y223531000D01*
G75*
G02*
X77282500Y223800250I0J269250D01*
G01*
X77282500Y224763750D01*
G75*
G02*
X77551750Y225033000I269250J0D01*
G01*
X78090250Y225033000D01*
G75*
G02*
X78359500Y224763750I0J-269250D01*
G01*
G37*
G36*
G01*
X-301000Y254898750D02*
X-301000Y257348750D01*
G75*
G02*
X-250000Y257399750I51000J0D01*
G01*
X350000Y257399750D01*
G75*
G02*
X401000Y257348750I0J-51000D01*
G01*
X401000Y254898750D01*
G75*
G02*
X350000Y254847750I-51000J0D01*
G01*
X-250000Y254847750D01*
G75*
G02*
X-301000Y254898750I0J51000D01*
G01*
G37*
G36*
G01*
X-6751000Y254898750D02*
X-6751000Y257348750D01*
G75*
G02*
X-6700000Y257399750I51000J0D01*
G01*
X-6100000Y257399750D01*
G75*
G02*
X-6049000Y257348750I0J-51000D01*
G01*
X-6049000Y254898750D01*
G75*
G02*
X-6100000Y254847750I-51000J0D01*
G01*
X-6700000Y254847750D01*
G75*
G02*
X-6751000Y254898750I0J51000D01*
G01*
G37*
G36*
G01*
X-1076000Y254898750D02*
X-1076000Y257348750D01*
G75*
G02*
X-1025000Y257399750I51000J0D01*
G01*
X-425000Y257399750D01*
G75*
G02*
X-374000Y257348750I0J-51000D01*
G01*
X-374000Y254898750D01*
G75*
G02*
X-425000Y254847750I-51000J0D01*
G01*
X-1025000Y254847750D01*
G75*
G02*
X-1076000Y254898750I0J51000D01*
G01*
G37*
G36*
G01*
X-5976000Y254898750D02*
X-5976000Y257348750D01*
G75*
G02*
X-5925000Y257399750I51000J0D01*
G01*
X-5325000Y257399750D01*
G75*
G02*
X-5274000Y257348750I0J-51000D01*
G01*
X-5274000Y254898750D01*
G75*
G02*
X-5325000Y254847750I-51000J0D01*
G01*
X-5925000Y254847750D01*
G75*
G02*
X-5976000Y254898750I0J51000D01*
G01*
G37*
G36*
G01*
X-5126000Y254898750D02*
X-5126000Y257348750D01*
G75*
G02*
X-5075000Y257399750I51000J0D01*
G01*
X-4775000Y257399750D01*
G75*
G02*
X-4724000Y257348750I0J-51000D01*
G01*
X-4724000Y254898750D01*
G75*
G02*
X-4775000Y254847750I-51000J0D01*
G01*
X-5075000Y254847750D01*
G75*
G02*
X-5126000Y254898750I0J51000D01*
G01*
G37*
G36*
G01*
X-1626000Y254898750D02*
X-1626000Y257348750D01*
G75*
G02*
X-1575000Y257399750I51000J0D01*
G01*
X-1275000Y257399750D01*
G75*
G02*
X-1224000Y257348750I0J-51000D01*
G01*
X-1224000Y254898750D01*
G75*
G02*
X-1275000Y254847750I-51000J0D01*
G01*
X-1575000Y254847750D01*
G75*
G02*
X-1626000Y254898750I0J51000D01*
G01*
G37*
G36*
G01*
X-4626000Y254898750D02*
X-4626000Y257348750D01*
G75*
G02*
X-4575000Y257399750I51000J0D01*
G01*
X-4275000Y257399750D01*
G75*
G02*
X-4224000Y257348750I0J-51000D01*
G01*
X-4224000Y254898750D01*
G75*
G02*
X-4275000Y254847750I-51000J0D01*
G01*
X-4575000Y254847750D01*
G75*
G02*
X-4626000Y254898750I0J51000D01*
G01*
G37*
G36*
G01*
X-2126000Y254898750D02*
X-2126000Y257348750D01*
G75*
G02*
X-2075000Y257399750I51000J0D01*
G01*
X-1775000Y257399750D01*
G75*
G02*
X-1724000Y257348750I0J-51000D01*
G01*
X-1724000Y254898750D01*
G75*
G02*
X-1775000Y254847750I-51000J0D01*
G01*
X-2075000Y254847750D01*
G75*
G02*
X-2126000Y254898750I0J51000D01*
G01*
G37*
G36*
G01*
X-4126000Y254898750D02*
X-4126000Y257348750D01*
G75*
G02*
X-4075000Y257399750I51000J0D01*
G01*
X-3775000Y257399750D01*
G75*
G02*
X-3724000Y257348750I0J-51000D01*
G01*
X-3724000Y254898750D01*
G75*
G02*
X-3775000Y254847750I-51000J0D01*
G01*
X-4075000Y254847750D01*
G75*
G02*
X-4126000Y254898750I0J51000D01*
G01*
G37*
G36*
G01*
X-2626000Y254898750D02*
X-2626000Y257348750D01*
G75*
G02*
X-2575000Y257399750I51000J0D01*
G01*
X-2275000Y257399750D01*
G75*
G02*
X-2224000Y257348750I0J-51000D01*
G01*
X-2224000Y254898750D01*
G75*
G02*
X-2275000Y254847750I-51000J0D01*
G01*
X-2575000Y254847750D01*
G75*
G02*
X-2626000Y254898750I0J51000D01*
G01*
G37*
G36*
G01*
X-3126000Y254898750D02*
X-3126000Y257348750D01*
G75*
G02*
X-3075000Y257399750I51000J0D01*
G01*
X-2775000Y257399750D01*
G75*
G02*
X-2724000Y257348750I0J-51000D01*
G01*
X-2724000Y254898750D01*
G75*
G02*
X-2775000Y254847750I-51000J0D01*
G01*
X-3075000Y254847750D01*
G75*
G02*
X-3126000Y254898750I0J51000D01*
G01*
G37*
G36*
G01*
X-3626000Y254898750D02*
X-3626000Y257348750D01*
G75*
G02*
X-3575000Y257399750I51000J0D01*
G01*
X-3275000Y257399750D01*
G75*
G02*
X-3224000Y257348750I0J-51000D01*
G01*
X-3224000Y254898750D01*
G75*
G02*
X-3275000Y254847750I-51000J0D01*
G01*
X-3575000Y254847750D01*
G75*
G02*
X-3626000Y254898750I0J51000D01*
G01*
G37*
D13*
X-285000Y258068750D03*
X-6065000Y258068750D03*
G36*
G01*
X-2509001Y251630000D02*
X-1808999Y251630000D01*
G75*
G02*
X-1758000Y251579001I0J-50999D01*
G01*
X-1758000Y250578999D01*
G75*
G02*
X-1808999Y250528000I-50999J0D01*
G01*
X-2509001Y250528000D01*
G75*
G02*
X-2560000Y250578999I0J50999D01*
G01*
X-2560000Y251579001D01*
G75*
G02*
X-2509001Y251630000I50999J0D01*
G01*
G37*
G36*
G01*
X-4509000Y251630000D02*
X-3809000Y251630000D01*
G75*
G02*
X-3758000Y251579000I0J-51000D01*
G01*
X-3758000Y250979000D01*
G75*
G02*
X-3809000Y250928000I-51000J0D01*
G01*
X-4509000Y250928000D01*
G75*
G02*
X-4560000Y250979000I0J51000D01*
G01*
X-4560000Y251579000D01*
G75*
G02*
X-4509000Y251630000I51000J0D01*
G01*
G37*
G36*
G01*
X-2509000Y249730000D02*
X-1809000Y249730000D01*
G75*
G02*
X-1758000Y249679000I0J-51000D01*
G01*
X-1758000Y249079000D01*
G75*
G02*
X-1809000Y249028000I-51000J0D01*
G01*
X-2509000Y249028000D01*
G75*
G02*
X-2560000Y249079000I0J51000D01*
G01*
X-2560000Y249679000D01*
G75*
G02*
X-2509000Y249730000I51000J0D01*
G01*
G37*
G36*
G01*
X-4509000Y249730000D02*
X-3809000Y249730000D01*
G75*
G02*
X-3758000Y249679000I0J-51000D01*
G01*
X-3758000Y249079000D01*
G75*
G02*
X-3809000Y249028000I-51000J0D01*
G01*
X-4509000Y249028000D01*
G75*
G02*
X-4560000Y249079000I0J51000D01*
G01*
X-4560000Y249679000D01*
G75*
G02*
X-4509000Y249730000I51000J0D01*
G01*
G37*
G36*
G01*
X4602500Y258926750D02*
X4602500Y257963250D01*
G75*
G02*
X4333250Y257694000I-269250J0D01*
G01*
X3794750Y257694000D01*
G75*
G02*
X3525500Y257963250I0J269250D01*
G01*
X3525500Y258926750D01*
G75*
G02*
X3794750Y259196000I269250J0D01*
G01*
X4333250Y259196000D01*
G75*
G02*
X4602500Y258926750I0J-269250D01*
G01*
G37*
G36*
G01*
X6477500Y258926750D02*
X6477500Y257963250D01*
G75*
G02*
X6208250Y257694000I-269250J0D01*
G01*
X5669750Y257694000D01*
G75*
G02*
X5400500Y257963250I0J269250D01*
G01*
X5400500Y258926750D01*
G75*
G02*
X5669750Y259196000I269250J0D01*
G01*
X6208250Y259196000D01*
G75*
G02*
X6477500Y258926750I0J-269250D01*
G01*
G37*
G36*
G01*
X-9043250Y247873500D02*
X-10006750Y247873500D01*
G75*
G02*
X-10276000Y248142750I0J269250D01*
G01*
X-10276000Y248681250D01*
G75*
G02*
X-10006750Y248950500I269250J0D01*
G01*
X-9043250Y248950500D01*
G75*
G02*
X-8774000Y248681250I0J-269250D01*
G01*
X-8774000Y248142750D01*
G75*
G02*
X-9043250Y247873500I-269250J0D01*
G01*
G37*
G36*
G01*
X-9043250Y245998500D02*
X-10006750Y245998500D01*
G75*
G02*
X-10276000Y246267750I0J269250D01*
G01*
X-10276000Y246806250D01*
G75*
G02*
X-10006750Y247075500I269250J0D01*
G01*
X-9043250Y247075500D01*
G75*
G02*
X-8774000Y246806250I0J-269250D01*
G01*
X-8774000Y246267750D01*
G75*
G02*
X-9043250Y245998500I-269250J0D01*
G01*
G37*
G36*
G01*
X9439000Y243352600D02*
X9439000Y242041400D01*
G75*
G02*
X9168600Y241771000I-270400J0D01*
G01*
X8357400Y241771000D01*
G75*
G02*
X8087000Y242041400I0J270400D01*
G01*
X8087000Y243352600D01*
G75*
G02*
X8357400Y243623000I270400J0D01*
G01*
X9168600Y243623000D01*
G75*
G02*
X9439000Y243352600I0J-270400D01*
G01*
G37*
G36*
G01*
X12239000Y243352600D02*
X12239000Y242041400D01*
G75*
G02*
X11968600Y241771000I-270400J0D01*
G01*
X11157400Y241771000D01*
G75*
G02*
X10887000Y242041400I0J270400D01*
G01*
X10887000Y243352600D01*
G75*
G02*
X11157400Y243623000I270400J0D01*
G01*
X11968600Y243623000D01*
G75*
G02*
X12239000Y243352600I0J-270400D01*
G01*
G37*
G36*
G01*
X55839658Y243356222D02*
X55839658Y244556224D01*
G75*
G02*
X55890657Y244607223I50999J0D01*
G01*
X57290659Y244607223D01*
G75*
G02*
X57341658Y244556224I0J-50999D01*
G01*
X57341658Y243356222D01*
G75*
G02*
X57290659Y243305223I-50999J0D01*
G01*
X55890657Y243305223D01*
G75*
G02*
X55839658Y243356222I0J50999D01*
G01*
G37*
G36*
G01*
X58039658Y243356222D02*
X58039658Y244556224D01*
G75*
G02*
X58090657Y244607223I50999J0D01*
G01*
X59490659Y244607223D01*
G75*
G02*
X59541658Y244556224I0J-50999D01*
G01*
X59541658Y243356222D01*
G75*
G02*
X59490659Y243305223I-50999J0D01*
G01*
X58090657Y243305223D01*
G75*
G02*
X58039658Y243356222I0J50999D01*
G01*
G37*
G36*
G01*
X58039658Y245056222D02*
X58039658Y246256224D01*
G75*
G02*
X58090657Y246307223I50999J0D01*
G01*
X59490659Y246307223D01*
G75*
G02*
X59541658Y246256224I0J-50999D01*
G01*
X59541658Y245056222D01*
G75*
G02*
X59490659Y245005223I-50999J0D01*
G01*
X58090657Y245005223D01*
G75*
G02*
X58039658Y245056222I0J50999D01*
G01*
G37*
G36*
G01*
X55839658Y245056222D02*
X55839658Y246256224D01*
G75*
G02*
X55890657Y246307223I50999J0D01*
G01*
X57290659Y246307223D01*
G75*
G02*
X57341658Y246256224I0J-50999D01*
G01*
X57341658Y245056222D01*
G75*
G02*
X57290659Y245005223I-50999J0D01*
G01*
X55890657Y245005223D01*
G75*
G02*
X55839658Y245056222I0J50999D01*
G01*
G37*
G36*
G01*
X72530000Y220756000D02*
X72530000Y221856000D01*
G75*
G02*
X72581000Y221907000I51000J0D01*
G01*
X74381000Y221907000D01*
G75*
G02*
X74432000Y221856000I0J-51000D01*
G01*
X74432000Y220756000D01*
G75*
G02*
X74381000Y220705000I-51000J0D01*
G01*
X72581000Y220705000D01*
G75*
G02*
X72530000Y220756000I0J51000D01*
G01*
G37*
G36*
G01*
X78730000Y217056000D02*
X78730000Y218156000D01*
G75*
G02*
X78781000Y218207000I51000J0D01*
G01*
X80581000Y218207000D01*
G75*
G02*
X80632000Y218156000I0J-51000D01*
G01*
X80632000Y217056000D01*
G75*
G02*
X80581000Y217005000I-51000J0D01*
G01*
X78781000Y217005000D01*
G75*
G02*
X78730000Y217056000I0J51000D01*
G01*
G37*
G36*
G01*
X72530000Y217056000D02*
X72530000Y218156000D01*
G75*
G02*
X72581000Y218207000I51000J0D01*
G01*
X74381000Y218207000D01*
G75*
G02*
X74432000Y218156000I0J-51000D01*
G01*
X74432000Y217056000D01*
G75*
G02*
X74381000Y217005000I-51000J0D01*
G01*
X72581000Y217005000D01*
G75*
G02*
X72530000Y217056000I0J51000D01*
G01*
G37*
G36*
G01*
X78730000Y220756000D02*
X78730000Y221856000D01*
G75*
G02*
X78781000Y221907000I51000J0D01*
G01*
X80581000Y221907000D01*
G75*
G02*
X80632000Y221856000I0J-51000D01*
G01*
X80632000Y220756000D01*
G75*
G02*
X80581000Y220705000I-51000J0D01*
G01*
X78781000Y220705000D01*
G75*
G02*
X78730000Y220756000I0J51000D01*
G01*
G37*
G36*
G01*
X109638400Y242147000D02*
X107638400Y242147000D01*
G75*
G02*
X107587400Y242198000I0J51000D01*
G01*
X107587400Y244198000D01*
G75*
G02*
X107638400Y244249000I51000J0D01*
G01*
X109638400Y244249000D01*
G75*
G02*
X109689400Y244198000I0J-51000D01*
G01*
X109689400Y242198000D01*
G75*
G02*
X109638400Y242147000I-51000J0D01*
G01*
G37*
D14*
X111138400Y243198000D03*
X113638400Y243198000D03*
G36*
G01*
X106538400Y249047000D02*
X104538400Y249047000D01*
G75*
G02*
X104487400Y249098000I0J51000D01*
G01*
X104487400Y252298000D01*
G75*
G02*
X104538400Y252349000I51000J0D01*
G01*
X106538400Y252349000D01*
G75*
G02*
X106589400Y252298000I0J-51000D01*
G01*
X106589400Y249098000D01*
G75*
G02*
X106538400Y249047000I-51000J0D01*
G01*
G37*
G36*
G01*
X117738400Y249047000D02*
X115738400Y249047000D01*
G75*
G02*
X115687400Y249098000I0J51000D01*
G01*
X115687400Y252298000D01*
G75*
G02*
X115738400Y252349000I51000J0D01*
G01*
X117738400Y252349000D01*
G75*
G02*
X117789400Y252298000I0J-51000D01*
G01*
X117789400Y249098000D01*
G75*
G02*
X117738400Y249047000I-51000J0D01*
G01*
G37*
X108638400Y257698000D03*
X113638400Y257698000D03*
G36*
G01*
X66002750Y228152500D02*
X66966250Y228152500D01*
G75*
G02*
X67235500Y227883250I0J-269250D01*
G01*
X67235500Y227344750D01*
G75*
G02*
X66966250Y227075500I-269250J0D01*
G01*
X66002750Y227075500D01*
G75*
G02*
X65733500Y227344750I0J269250D01*
G01*
X65733500Y227883250D01*
G75*
G02*
X66002750Y228152500I269250J0D01*
G01*
G37*
G36*
G01*
X66002750Y230027500D02*
X66966250Y230027500D01*
G75*
G02*
X67235500Y229758250I0J-269250D01*
G01*
X67235500Y229219750D01*
G75*
G02*
X66966250Y228950500I-269250J0D01*
G01*
X66002750Y228950500D01*
G75*
G02*
X65733500Y229219750I0J269250D01*
G01*
X65733500Y229758250D01*
G75*
G02*
X66002750Y230027500I269250J0D01*
G01*
G37*
G36*
G01*
X44984250Y240344500D02*
X45947750Y240344500D01*
G75*
G02*
X46217000Y240075250I0J-269250D01*
G01*
X46217000Y239536750D01*
G75*
G02*
X45947750Y239267500I-269250J0D01*
G01*
X44984250Y239267500D01*
G75*
G02*
X44715000Y239536750I0J269250D01*
G01*
X44715000Y240075250D01*
G75*
G02*
X44984250Y240344500I269250J0D01*
G01*
G37*
G36*
G01*
X44984250Y242219500D02*
X45947750Y242219500D01*
G75*
G02*
X46217000Y241950250I0J-269250D01*
G01*
X46217000Y241411750D01*
G75*
G02*
X45947750Y241142500I-269250J0D01*
G01*
X44984250Y241142500D01*
G75*
G02*
X44715000Y241411750I0J269250D01*
G01*
X44715000Y241950250D01*
G75*
G02*
X44984250Y242219500I269250J0D01*
G01*
G37*
G36*
G01*
X51586550Y244414500D02*
X50623050Y244414500D01*
G75*
G02*
X50353800Y244683750I0J269250D01*
G01*
X50353800Y245222250D01*
G75*
G02*
X50623050Y245491500I269250J0D01*
G01*
X51586550Y245491500D01*
G75*
G02*
X51855800Y245222250I0J-269250D01*
G01*
X51855800Y244683750D01*
G75*
G02*
X51586550Y244414500I-269250J0D01*
G01*
G37*
G36*
G01*
X51586550Y242539500D02*
X50623050Y242539500D01*
G75*
G02*
X50353800Y242808750I0J269250D01*
G01*
X50353800Y243347250D01*
G75*
G02*
X50623050Y243616500I269250J0D01*
G01*
X51586550Y243616500D01*
G75*
G02*
X51855800Y243347250I0J-269250D01*
G01*
X51855800Y242808750D01*
G75*
G02*
X51586550Y242539500I-269250J0D01*
G01*
G37*
G36*
G01*
X63346750Y246129000D02*
X62383250Y246129000D01*
G75*
G02*
X62114000Y246398250I0J269250D01*
G01*
X62114000Y246936750D01*
G75*
G02*
X62383250Y247206000I269250J0D01*
G01*
X63346750Y247206000D01*
G75*
G02*
X63616000Y246936750I0J-269250D01*
G01*
X63616000Y246398250D01*
G75*
G02*
X63346750Y246129000I-269250J0D01*
G01*
G37*
G36*
G01*
X63346750Y244254000D02*
X62383250Y244254000D01*
G75*
G02*
X62114000Y244523250I0J269250D01*
G01*
X62114000Y245061750D01*
G75*
G02*
X62383250Y245331000I269250J0D01*
G01*
X63346750Y245331000D01*
G75*
G02*
X63616000Y245061750I0J-269250D01*
G01*
X63616000Y244523250D01*
G75*
G02*
X63346750Y244254000I-269250J0D01*
G01*
G37*
G36*
G01*
X54077450Y234477100D02*
X55040950Y234477100D01*
G75*
G02*
X55310200Y234207850I0J-269250D01*
G01*
X55310200Y233669350D01*
G75*
G02*
X55040950Y233400100I-269250J0D01*
G01*
X54077450Y233400100D01*
G75*
G02*
X53808200Y233669350I0J269250D01*
G01*
X53808200Y234207850D01*
G75*
G02*
X54077450Y234477100I269250J0D01*
G01*
G37*
G36*
G01*
X54077450Y236352100D02*
X55040950Y236352100D01*
G75*
G02*
X55310200Y236082850I0J-269250D01*
G01*
X55310200Y235544350D01*
G75*
G02*
X55040950Y235275100I-269250J0D01*
G01*
X54077450Y235275100D01*
G75*
G02*
X53808200Y235544350I0J269250D01*
G01*
X53808200Y236082850D01*
G75*
G02*
X54077450Y236352100I269250J0D01*
G01*
G37*
G36*
G01*
X61238550Y245206500D02*
X60275050Y245206500D01*
G75*
G02*
X60005800Y245475750I0J269250D01*
G01*
X60005800Y246014250D01*
G75*
G02*
X60275050Y246283500I269250J0D01*
G01*
X61238550Y246283500D01*
G75*
G02*
X61507800Y246014250I0J-269250D01*
G01*
X61507800Y245475750D01*
G75*
G02*
X61238550Y245206500I-269250J0D01*
G01*
G37*
G36*
G01*
X61238550Y243331500D02*
X60275050Y243331500D01*
G75*
G02*
X60005800Y243600750I0J269250D01*
G01*
X60005800Y244139250D01*
G75*
G02*
X60275050Y244408500I269250J0D01*
G01*
X61238550Y244408500D01*
G75*
G02*
X61507800Y244139250I0J-269250D01*
G01*
X61507800Y243600750D01*
G75*
G02*
X61238550Y243331500I-269250J0D01*
G01*
G37*
G36*
G01*
X53366250Y244408500D02*
X54329750Y244408500D01*
G75*
G02*
X54599000Y244139250I0J-269250D01*
G01*
X54599000Y243600750D01*
G75*
G02*
X54329750Y243331500I-269250J0D01*
G01*
X53366250Y243331500D01*
G75*
G02*
X53097000Y243600750I0J269250D01*
G01*
X53097000Y244139250D01*
G75*
G02*
X53366250Y244408500I269250J0D01*
G01*
G37*
G36*
G01*
X53366250Y246283500D02*
X54329750Y246283500D01*
G75*
G02*
X54599000Y246014250I0J-269250D01*
G01*
X54599000Y245475750D01*
G75*
G02*
X54329750Y245206500I-269250J0D01*
G01*
X53366250Y245206500D01*
G75*
G02*
X53097000Y245475750I0J269250D01*
G01*
X53097000Y246014250D01*
G75*
G02*
X53366250Y246283500I269250J0D01*
G01*
G37*
G36*
G01*
X58535505Y240253497D02*
X58535505Y239703497D01*
G75*
G02*
X58484505Y239652497I-51000J0D01*
G01*
X56884505Y239652497D01*
G75*
G02*
X56833505Y239703497I0J51000D01*
G01*
X56833505Y240253497D01*
G75*
G02*
X56884505Y240304497I51000J0D01*
G01*
X58484505Y240304497D01*
G75*
G02*
X58535505Y240253497I0J-51000D01*
G01*
G37*
G36*
G01*
X58535505Y239453497D02*
X58535505Y238903497D01*
G75*
G02*
X58484505Y238852497I-51000J0D01*
G01*
X56884505Y238852497D01*
G75*
G02*
X56833505Y238903497I0J51000D01*
G01*
X56833505Y239453497D01*
G75*
G02*
X56884505Y239504497I51000J0D01*
G01*
X58484505Y239504497D01*
G75*
G02*
X58535505Y239453497I0J-51000D01*
G01*
G37*
G36*
G01*
X58535505Y238653497D02*
X58535505Y238103497D01*
G75*
G02*
X58484505Y238052497I-51000J0D01*
G01*
X56884505Y238052497D01*
G75*
G02*
X56833505Y238103497I0J51000D01*
G01*
X56833505Y238653497D01*
G75*
G02*
X56884505Y238704497I51000J0D01*
G01*
X58484505Y238704497D01*
G75*
G02*
X58535505Y238653497I0J-51000D01*
G01*
G37*
G36*
G01*
X58535505Y237853497D02*
X58535505Y237303497D01*
G75*
G02*
X58484505Y237252497I-51000J0D01*
G01*
X56884505Y237252497D01*
G75*
G02*
X56833505Y237303497I0J51000D01*
G01*
X56833505Y237853497D01*
G75*
G02*
X56884505Y237904497I51000J0D01*
G01*
X58484505Y237904497D01*
G75*
G02*
X58535505Y237853497I0J-51000D01*
G01*
G37*
G36*
G01*
X58535505Y237053497D02*
X58535505Y236503497D01*
G75*
G02*
X58484505Y236452497I-51000J0D01*
G01*
X56884505Y236452497D01*
G75*
G02*
X56833505Y236503497I0J51000D01*
G01*
X56833505Y237053497D01*
G75*
G02*
X56884505Y237104497I51000J0D01*
G01*
X58484505Y237104497D01*
G75*
G02*
X58535505Y237053497I0J-51000D01*
G01*
G37*
G36*
G01*
X58535505Y236253497D02*
X58535505Y235703497D01*
G75*
G02*
X58484505Y235652497I-51000J0D01*
G01*
X56884505Y235652497D01*
G75*
G02*
X56833505Y235703497I0J51000D01*
G01*
X56833505Y236253497D01*
G75*
G02*
X56884505Y236304497I51000J0D01*
G01*
X58484505Y236304497D01*
G75*
G02*
X58535505Y236253497I0J-51000D01*
G01*
G37*
G36*
G01*
X58535505Y235453497D02*
X58535505Y234903497D01*
G75*
G02*
X58484505Y234852497I-51000J0D01*
G01*
X56884505Y234852497D01*
G75*
G02*
X56833505Y234903497I0J51000D01*
G01*
X56833505Y235453497D01*
G75*
G02*
X56884505Y235504497I51000J0D01*
G01*
X58484505Y235504497D01*
G75*
G02*
X58535505Y235453497I0J-51000D01*
G01*
G37*
G36*
G01*
X58535505Y234653497D02*
X58535505Y234103497D01*
G75*
G02*
X58484505Y234052497I-51000J0D01*
G01*
X56884505Y234052497D01*
G75*
G02*
X56833505Y234103497I0J51000D01*
G01*
X56833505Y234653497D01*
G75*
G02*
X56884505Y234704497I51000J0D01*
G01*
X58484505Y234704497D01*
G75*
G02*
X58535505Y234653497I0J-51000D01*
G01*
G37*
G36*
G01*
X58859505Y233779497D02*
X59409505Y233779497D01*
G75*
G02*
X59460505Y233728497I0J-51000D01*
G01*
X59460505Y232128497D01*
G75*
G02*
X59409505Y232077497I-51000J0D01*
G01*
X58859505Y232077497D01*
G75*
G02*
X58808505Y232128497I0J51000D01*
G01*
X58808505Y233728497D01*
G75*
G02*
X58859505Y233779497I51000J0D01*
G01*
G37*
G36*
G01*
X59659505Y233779497D02*
X60209505Y233779497D01*
G75*
G02*
X60260505Y233728497I0J-51000D01*
G01*
X60260505Y232128497D01*
G75*
G02*
X60209505Y232077497I-51000J0D01*
G01*
X59659505Y232077497D01*
G75*
G02*
X59608505Y232128497I0J51000D01*
G01*
X59608505Y233728497D01*
G75*
G02*
X59659505Y233779497I51000J0D01*
G01*
G37*
G36*
G01*
X60459505Y233779497D02*
X61009505Y233779497D01*
G75*
G02*
X61060505Y233728497I0J-51000D01*
G01*
X61060505Y232128497D01*
G75*
G02*
X61009505Y232077497I-51000J0D01*
G01*
X60459505Y232077497D01*
G75*
G02*
X60408505Y232128497I0J51000D01*
G01*
X60408505Y233728497D01*
G75*
G02*
X60459505Y233779497I51000J0D01*
G01*
G37*
G36*
G01*
X61259505Y233779497D02*
X61809505Y233779497D01*
G75*
G02*
X61860505Y233728497I0J-51000D01*
G01*
X61860505Y232128497D01*
G75*
G02*
X61809505Y232077497I-51000J0D01*
G01*
X61259505Y232077497D01*
G75*
G02*
X61208505Y232128497I0J51000D01*
G01*
X61208505Y233728497D01*
G75*
G02*
X61259505Y233779497I51000J0D01*
G01*
G37*
G36*
G01*
X62059505Y233779497D02*
X62609505Y233779497D01*
G75*
G02*
X62660505Y233728497I0J-51000D01*
G01*
X62660505Y232128497D01*
G75*
G02*
X62609505Y232077497I-51000J0D01*
G01*
X62059505Y232077497D01*
G75*
G02*
X62008505Y232128497I0J51000D01*
G01*
X62008505Y233728497D01*
G75*
G02*
X62059505Y233779497I51000J0D01*
G01*
G37*
G36*
G01*
X62859505Y233779497D02*
X63409505Y233779497D01*
G75*
G02*
X63460505Y233728497I0J-51000D01*
G01*
X63460505Y232128497D01*
G75*
G02*
X63409505Y232077497I-51000J0D01*
G01*
X62859505Y232077497D01*
G75*
G02*
X62808505Y232128497I0J51000D01*
G01*
X62808505Y233728497D01*
G75*
G02*
X62859505Y233779497I51000J0D01*
G01*
G37*
G36*
G01*
X63659505Y233779497D02*
X64209505Y233779497D01*
G75*
G02*
X64260505Y233728497I0J-51000D01*
G01*
X64260505Y232128497D01*
G75*
G02*
X64209505Y232077497I-51000J0D01*
G01*
X63659505Y232077497D01*
G75*
G02*
X63608505Y232128497I0J51000D01*
G01*
X63608505Y233728497D01*
G75*
G02*
X63659505Y233779497I51000J0D01*
G01*
G37*
G36*
G01*
X64459505Y233779497D02*
X65009505Y233779497D01*
G75*
G02*
X65060505Y233728497I0J-51000D01*
G01*
X65060505Y232128497D01*
G75*
G02*
X65009505Y232077497I-51000J0D01*
G01*
X64459505Y232077497D01*
G75*
G02*
X64408505Y232128497I0J51000D01*
G01*
X64408505Y233728497D01*
G75*
G02*
X64459505Y233779497I51000J0D01*
G01*
G37*
G36*
G01*
X67035505Y234653497D02*
X67035505Y234103497D01*
G75*
G02*
X66984505Y234052497I-51000J0D01*
G01*
X65384505Y234052497D01*
G75*
G02*
X65333505Y234103497I0J51000D01*
G01*
X65333505Y234653497D01*
G75*
G02*
X65384505Y234704497I51000J0D01*
G01*
X66984505Y234704497D01*
G75*
G02*
X67035505Y234653497I0J-51000D01*
G01*
G37*
G36*
G01*
X67035505Y235453497D02*
X67035505Y234903497D01*
G75*
G02*
X66984505Y234852497I-51000J0D01*
G01*
X65384505Y234852497D01*
G75*
G02*
X65333505Y234903497I0J51000D01*
G01*
X65333505Y235453497D01*
G75*
G02*
X65384505Y235504497I51000J0D01*
G01*
X66984505Y235504497D01*
G75*
G02*
X67035505Y235453497I0J-51000D01*
G01*
G37*
G36*
G01*
X67035505Y236253497D02*
X67035505Y235703497D01*
G75*
G02*
X66984505Y235652497I-51000J0D01*
G01*
X65384505Y235652497D01*
G75*
G02*
X65333505Y235703497I0J51000D01*
G01*
X65333505Y236253497D01*
G75*
G02*
X65384505Y236304497I51000J0D01*
G01*
X66984505Y236304497D01*
G75*
G02*
X67035505Y236253497I0J-51000D01*
G01*
G37*
G36*
G01*
X67035505Y237053497D02*
X67035505Y236503497D01*
G75*
G02*
X66984505Y236452497I-51000J0D01*
G01*
X65384505Y236452497D01*
G75*
G02*
X65333505Y236503497I0J51000D01*
G01*
X65333505Y237053497D01*
G75*
G02*
X65384505Y237104497I51000J0D01*
G01*
X66984505Y237104497D01*
G75*
G02*
X67035505Y237053497I0J-51000D01*
G01*
G37*
G36*
G01*
X67035505Y237853497D02*
X67035505Y237303497D01*
G75*
G02*
X66984505Y237252497I-51000J0D01*
G01*
X65384505Y237252497D01*
G75*
G02*
X65333505Y237303497I0J51000D01*
G01*
X65333505Y237853497D01*
G75*
G02*
X65384505Y237904497I51000J0D01*
G01*
X66984505Y237904497D01*
G75*
G02*
X67035505Y237853497I0J-51000D01*
G01*
G37*
G36*
G01*
X67035505Y238653497D02*
X67035505Y238103497D01*
G75*
G02*
X66984505Y238052497I-51000J0D01*
G01*
X65384505Y238052497D01*
G75*
G02*
X65333505Y238103497I0J51000D01*
G01*
X65333505Y238653497D01*
G75*
G02*
X65384505Y238704497I51000J0D01*
G01*
X66984505Y238704497D01*
G75*
G02*
X67035505Y238653497I0J-51000D01*
G01*
G37*
G36*
G01*
X67035505Y239453497D02*
X67035505Y238903497D01*
G75*
G02*
X66984505Y238852497I-51000J0D01*
G01*
X65384505Y238852497D01*
G75*
G02*
X65333505Y238903497I0J51000D01*
G01*
X65333505Y239453497D01*
G75*
G02*
X65384505Y239504497I51000J0D01*
G01*
X66984505Y239504497D01*
G75*
G02*
X67035505Y239453497I0J-51000D01*
G01*
G37*
G36*
G01*
X67035505Y240253497D02*
X67035505Y239703497D01*
G75*
G02*
X66984505Y239652497I-51000J0D01*
G01*
X65384505Y239652497D01*
G75*
G02*
X65333505Y239703497I0J51000D01*
G01*
X65333505Y240253497D01*
G75*
G02*
X65384505Y240304497I51000J0D01*
G01*
X66984505Y240304497D01*
G75*
G02*
X67035505Y240253497I0J-51000D01*
G01*
G37*
G36*
G01*
X64459505Y242279497D02*
X65009505Y242279497D01*
G75*
G02*
X65060505Y242228497I0J-51000D01*
G01*
X65060505Y240628497D01*
G75*
G02*
X65009505Y240577497I-51000J0D01*
G01*
X64459505Y240577497D01*
G75*
G02*
X64408505Y240628497I0J51000D01*
G01*
X64408505Y242228497D01*
G75*
G02*
X64459505Y242279497I51000J0D01*
G01*
G37*
G36*
G01*
X63659505Y242279497D02*
X64209505Y242279497D01*
G75*
G02*
X64260505Y242228497I0J-51000D01*
G01*
X64260505Y240628497D01*
G75*
G02*
X64209505Y240577497I-51000J0D01*
G01*
X63659505Y240577497D01*
G75*
G02*
X63608505Y240628497I0J51000D01*
G01*
X63608505Y242228497D01*
G75*
G02*
X63659505Y242279497I51000J0D01*
G01*
G37*
G36*
G01*
X62859505Y242279497D02*
X63409505Y242279497D01*
G75*
G02*
X63460505Y242228497I0J-51000D01*
G01*
X63460505Y240628497D01*
G75*
G02*
X63409505Y240577497I-51000J0D01*
G01*
X62859505Y240577497D01*
G75*
G02*
X62808505Y240628497I0J51000D01*
G01*
X62808505Y242228497D01*
G75*
G02*
X62859505Y242279497I51000J0D01*
G01*
G37*
G36*
G01*
X62059505Y242279497D02*
X62609505Y242279497D01*
G75*
G02*
X62660505Y242228497I0J-51000D01*
G01*
X62660505Y240628497D01*
G75*
G02*
X62609505Y240577497I-51000J0D01*
G01*
X62059505Y240577497D01*
G75*
G02*
X62008505Y240628497I0J51000D01*
G01*
X62008505Y242228497D01*
G75*
G02*
X62059505Y242279497I51000J0D01*
G01*
G37*
G36*
G01*
X61259505Y242279497D02*
X61809505Y242279497D01*
G75*
G02*
X61860505Y242228497I0J-51000D01*
G01*
X61860505Y240628497D01*
G75*
G02*
X61809505Y240577497I-51000J0D01*
G01*
X61259505Y240577497D01*
G75*
G02*
X61208505Y240628497I0J51000D01*
G01*
X61208505Y242228497D01*
G75*
G02*
X61259505Y242279497I51000J0D01*
G01*
G37*
G36*
G01*
X60459505Y242279497D02*
X61009505Y242279497D01*
G75*
G02*
X61060505Y242228497I0J-51000D01*
G01*
X61060505Y240628497D01*
G75*
G02*
X61009505Y240577497I-51000J0D01*
G01*
X60459505Y240577497D01*
G75*
G02*
X60408505Y240628497I0J51000D01*
G01*
X60408505Y242228497D01*
G75*
G02*
X60459505Y242279497I51000J0D01*
G01*
G37*
G36*
G01*
X59659505Y242279497D02*
X60209505Y242279497D01*
G75*
G02*
X60260505Y242228497I0J-51000D01*
G01*
X60260505Y240628497D01*
G75*
G02*
X60209505Y240577497I-51000J0D01*
G01*
X59659505Y240577497D01*
G75*
G02*
X59608505Y240628497I0J51000D01*
G01*
X59608505Y242228497D01*
G75*
G02*
X59659505Y242279497I51000J0D01*
G01*
G37*
G36*
G01*
X58859505Y242279497D02*
X59409505Y242279497D01*
G75*
G02*
X59460505Y242228497I0J-51000D01*
G01*
X59460505Y240628497D01*
G75*
G02*
X59409505Y240577497I-51000J0D01*
G01*
X58859505Y240577497D01*
G75*
G02*
X58808505Y240628497I0J51000D01*
G01*
X58808505Y242228497D01*
G75*
G02*
X58859505Y242279497I51000J0D01*
G01*
G37*
D10*
X70802500Y193992500D03*
D11*
X68262500Y188912500D03*
D10*
X64452500Y191452500D03*
D12*
X63182500Y188912500D03*
X73342500Y188912500D03*
G36*
G01*
X77054000Y188093000D02*
X75854000Y188093000D01*
G75*
G02*
X75803000Y188144000I0J51000D01*
G01*
X75803000Y189044000D01*
G75*
G02*
X75854000Y189095000I51000J0D01*
G01*
X77054000Y189095000D01*
G75*
G02*
X77105000Y189044000I0J-51000D01*
G01*
X77105000Y188144000D01*
G75*
G02*
X77054000Y188093000I-51000J0D01*
G01*
G37*
G36*
G01*
X77054000Y184793000D02*
X75854000Y184793000D01*
G75*
G02*
X75803000Y184844000I0J51000D01*
G01*
X75803000Y185744000D01*
G75*
G02*
X75854000Y185795000I51000J0D01*
G01*
X77054000Y185795000D01*
G75*
G02*
X77105000Y185744000I0J-51000D01*
G01*
X77105000Y184844000D01*
G75*
G02*
X77054000Y184793000I-51000J0D01*
G01*
G37*
D10*
X44608750Y198755000D03*
D11*
X42068750Y193675000D03*
D10*
X38258750Y196215000D03*
D12*
X36988750Y193675000D03*
X47148750Y193675000D03*
D10*
X-26828750Y198755000D03*
D11*
X-29368750Y193675000D03*
D10*
X-33178750Y196215000D03*
D12*
X-34448750Y193675000D03*
X-24288750Y193675000D03*
D15*
X-79368650Y186690000D03*
X20631150Y186690000D03*
D11*
X-79368650Y201930000D03*
X20631150Y201930000D03*
D10*
X-98266250Y198755000D03*
D11*
X-100806250Y193675000D03*
D10*
X-104616250Y196215000D03*
D12*
X-105886250Y193675000D03*
X-95726250Y193675000D03*
D10*
X-122078750Y198755000D03*
D11*
X-124618750Y193675000D03*
D10*
X-128428750Y196215000D03*
D12*
X-129698750Y193675000D03*
X-119538750Y193675000D03*
D10*
X108902500Y193992500D03*
D11*
X106362500Y188912500D03*
D10*
X102552500Y191452500D03*
D12*
X101282500Y188912500D03*
X111442500Y188912500D03*
D10*
X89852500Y193992500D03*
D11*
X87312500Y188912500D03*
D10*
X83502500Y191452500D03*
D12*
X82232500Y188912500D03*
X92392500Y188912500D03*
D10*
X46990000Y198755000D03*
D11*
X44450000Y193675000D03*
D10*
X40640000Y196215000D03*
D12*
X39370000Y193675000D03*
X49530000Y193675000D03*
D10*
X27940000Y198755000D03*
D11*
X25400000Y193675000D03*
D10*
X21590000Y196215000D03*
D12*
X20320000Y193675000D03*
X30480000Y193675000D03*
D10*
X-3016250Y198755000D03*
D11*
X-5556250Y193675000D03*
D10*
X-9366250Y196215000D03*
D12*
X-10636250Y193675000D03*
X-476250Y193675000D03*
D15*
X-17462500Y186690000D03*
X6350000Y186690000D03*
D11*
X-17462500Y201930000D03*
X6350000Y201930000D03*
D10*
X-29210000Y198755000D03*
D11*
X-31750000Y193675000D03*
D10*
X-35560000Y196215000D03*
D12*
X-36830000Y193675000D03*
X-26670000Y193675000D03*
D15*
X-88900000Y186690000D03*
X25400000Y186690000D03*
D11*
X-88900000Y201930000D03*
X25400000Y201930000D03*
D10*
X-50641250Y198755000D03*
D11*
X-53181250Y193675000D03*
D10*
X-56991250Y196215000D03*
D12*
X-58261250Y193675000D03*
X-48101250Y193675000D03*
D15*
X-65087500Y186690000D03*
X-41275000Y186690000D03*
D11*
X-65087500Y201930000D03*
X-41275000Y201930000D03*
D10*
X-86360000Y198755000D03*
D11*
X-88900000Y193675000D03*
D10*
X-92710000Y196215000D03*
D12*
X-93980000Y193675000D03*
X-83820000Y193675000D03*
D10*
X-105410000Y198755000D03*
D11*
X-107950000Y193675000D03*
D10*
X-111760000Y196215000D03*
D12*
X-113030000Y193675000D03*
X-102870000Y193675000D03*
D10*
X-124460000Y198755000D03*
D11*
X-127000000Y193675000D03*
D10*
X-130810000Y196215000D03*
D12*
X-132080000Y193675000D03*
X-121920000Y193675000D03*
D10*
X113665000Y217805000D03*
D11*
X111125000Y212725000D03*
D10*
X107315000Y215265000D03*
D12*
X106045000Y212725000D03*
X116205000Y212725000D03*
D10*
X89852500Y213042500D03*
D11*
X87312500Y207962500D03*
D10*
X83502500Y210502500D03*
D12*
X82232500Y207962500D03*
X92392500Y207962500D03*
D10*
X63658750Y217805000D03*
D11*
X61118750Y212725000D03*
D10*
X57308750Y215265000D03*
D12*
X56038750Y212725000D03*
X66198750Y212725000D03*
D10*
X42227500Y217805000D03*
D11*
X39687500Y212725000D03*
D10*
X35877500Y215265000D03*
D12*
X34607500Y212725000D03*
X44767500Y212725000D03*
D10*
X23177500Y217805000D03*
D11*
X20637500Y212725000D03*
D10*
X16827500Y215265000D03*
D12*
X15557500Y212725000D03*
X25717500Y212725000D03*
D10*
X4127500Y217805000D03*
D11*
X1587500Y212725000D03*
D10*
X-2222500Y215265000D03*
D12*
X-3492500Y212725000D03*
X6667500Y212725000D03*
D10*
X-14922500Y217805000D03*
D11*
X-17462500Y212725000D03*
D10*
X-21272500Y215265000D03*
D12*
X-22542500Y212725000D03*
X-12382500Y212725000D03*
D10*
X-33972500Y217805000D03*
D11*
X-36512500Y212725000D03*
D10*
X-40322500Y215265000D03*
D12*
X-41592500Y212725000D03*
X-31432500Y212725000D03*
D10*
X-53022500Y217805000D03*
D11*
X-55562500Y212725000D03*
D10*
X-59372500Y215265000D03*
D12*
X-60642500Y212725000D03*
X-50482500Y212725000D03*
D10*
X-72072500Y217805000D03*
D11*
X-74612500Y212725000D03*
D10*
X-78422500Y215265000D03*
D12*
X-79692500Y212725000D03*
X-69532500Y212725000D03*
D10*
X-91122500Y217805000D03*
D11*
X-93662500Y212725000D03*
D10*
X-97472500Y215265000D03*
D12*
X-98742500Y212725000D03*
X-88582500Y212725000D03*
D10*
X-117316250Y217805000D03*
D11*
X-119856250Y212725000D03*
D10*
X-123666250Y215265000D03*
D12*
X-124936250Y212725000D03*
X-114776250Y212725000D03*
D10*
X113665000Y236855000D03*
D11*
X111125000Y231775000D03*
D10*
X107315000Y234315000D03*
D12*
X106045000Y231775000D03*
X116205000Y231775000D03*
D10*
X51752500Y236855000D03*
D11*
X49212500Y231775000D03*
D10*
X45402500Y234315000D03*
D12*
X44132500Y231775000D03*
X54292500Y231775000D03*
D10*
X32702500Y236855000D03*
D11*
X30162500Y231775000D03*
D10*
X26352500Y234315000D03*
D12*
X25082500Y231775000D03*
X35242500Y231775000D03*
D10*
X13652500Y236855000D03*
D11*
X11112500Y231775000D03*
D10*
X7302500Y234315000D03*
D12*
X6032500Y231775000D03*
X16192500Y231775000D03*
D10*
X-5397500Y236855000D03*
D11*
X-7937500Y231775000D03*
D10*
X-11747500Y234315000D03*
D12*
X-13017500Y231775000D03*
X-2857500Y231775000D03*
D10*
X-24447500Y236855000D03*
D11*
X-26987500Y231775000D03*
D10*
X-30797500Y234315000D03*
D12*
X-32067500Y231775000D03*
X-21907500Y231775000D03*
D10*
X-43497500Y236855000D03*
D11*
X-46037500Y231775000D03*
D10*
X-49847500Y234315000D03*
D12*
X-51117500Y231775000D03*
X-40957500Y231775000D03*
D10*
X-62547500Y236855000D03*
D11*
X-65087500Y231775000D03*
D10*
X-68897500Y234315000D03*
D12*
X-70167500Y231775000D03*
X-60007500Y231775000D03*
D10*
X-81597500Y236855000D03*
D11*
X-84137500Y231775000D03*
D10*
X-87947500Y234315000D03*
D12*
X-89217500Y231775000D03*
X-79057500Y231775000D03*
D10*
X-100647500Y236855000D03*
D11*
X-103187500Y231775000D03*
D10*
X-106997500Y234315000D03*
D12*
X-108267500Y231775000D03*
X-98107500Y231775000D03*
D10*
X-122078750Y236855000D03*
D11*
X-124618750Y231775000D03*
D10*
X-128428750Y234315000D03*
D12*
X-129698750Y231775000D03*
X-119538750Y231775000D03*
G36*
G01*
X98771000Y188094000D02*
X97571000Y188094000D01*
G75*
G02*
X97520000Y188145000I0J51000D01*
G01*
X97520000Y189045000D01*
G75*
G02*
X97571000Y189096000I51000J0D01*
G01*
X98771000Y189096000D01*
G75*
G02*
X98822000Y189045000I0J-51000D01*
G01*
X98822000Y188145000D01*
G75*
G02*
X98771000Y188094000I-51000J0D01*
G01*
G37*
G36*
G01*
X98771000Y184794000D02*
X97571000Y184794000D01*
G75*
G02*
X97520000Y184845000I0J51000D01*
G01*
X97520000Y185745000D01*
G75*
G02*
X97571000Y185796000I51000J0D01*
G01*
X98771000Y185796000D01*
G75*
G02*
X98822000Y185745000I0J-51000D01*
G01*
X98822000Y184845000D01*
G75*
G02*
X98771000Y184794000I-51000J0D01*
G01*
G37*
G36*
G01*
X96104000Y188094000D02*
X94904000Y188094000D01*
G75*
G02*
X94853000Y188145000I0J51000D01*
G01*
X94853000Y189045000D01*
G75*
G02*
X94904000Y189096000I51000J0D01*
G01*
X96104000Y189096000D01*
G75*
G02*
X96155000Y189045000I0J-51000D01*
G01*
X96155000Y188145000D01*
G75*
G02*
X96104000Y188094000I-51000J0D01*
G01*
G37*
G36*
G01*
X96104000Y184794000D02*
X94904000Y184794000D01*
G75*
G02*
X94853000Y184845000I0J51000D01*
G01*
X94853000Y185745000D01*
G75*
G02*
X94904000Y185796000I51000J0D01*
G01*
X96104000Y185796000D01*
G75*
G02*
X96155000Y185745000I0J-51000D01*
G01*
X96155000Y184845000D01*
G75*
G02*
X96104000Y184794000I-51000J0D01*
G01*
G37*
G36*
G01*
X53305000Y192919000D02*
X52105000Y192919000D01*
G75*
G02*
X52054000Y192970000I0J51000D01*
G01*
X52054000Y193870000D01*
G75*
G02*
X52105000Y193921000I51000J0D01*
G01*
X53305000Y193921000D01*
G75*
G02*
X53356000Y193870000I0J-51000D01*
G01*
X53356000Y192970000D01*
G75*
G02*
X53305000Y192919000I-51000J0D01*
G01*
G37*
G36*
G01*
X53305000Y189619000D02*
X52105000Y189619000D01*
G75*
G02*
X52054000Y189670000I0J51000D01*
G01*
X52054000Y190570000D01*
G75*
G02*
X52105000Y190621000I51000J0D01*
G01*
X53305000Y190621000D01*
G75*
G02*
X53356000Y190570000I0J-51000D01*
G01*
X53356000Y189670000D01*
G75*
G02*
X53305000Y189619000I-51000J0D01*
G01*
G37*
G36*
G01*
X34255000Y192919000D02*
X33055000Y192919000D01*
G75*
G02*
X33004000Y192970000I0J51000D01*
G01*
X33004000Y193870000D01*
G75*
G02*
X33055000Y193921000I51000J0D01*
G01*
X34255000Y193921000D01*
G75*
G02*
X34306000Y193870000I0J-51000D01*
G01*
X34306000Y192970000D01*
G75*
G02*
X34255000Y192919000I-51000J0D01*
G01*
G37*
G36*
G01*
X34255000Y189619000D02*
X33055000Y189619000D01*
G75*
G02*
X33004000Y189670000I0J51000D01*
G01*
X33004000Y190570000D01*
G75*
G02*
X33055000Y190621000I51000J0D01*
G01*
X34255000Y190621000D01*
G75*
G02*
X34306000Y190570000I0J-51000D01*
G01*
X34306000Y189670000D01*
G75*
G02*
X34255000Y189619000I-51000J0D01*
G01*
G37*
G36*
G01*
X3394000Y192919000D02*
X2194000Y192919000D01*
G75*
G02*
X2143000Y192970000I0J51000D01*
G01*
X2143000Y193870000D01*
G75*
G02*
X2194000Y193921000I51000J0D01*
G01*
X3394000Y193921000D01*
G75*
G02*
X3445000Y193870000I0J-51000D01*
G01*
X3445000Y192970000D01*
G75*
G02*
X3394000Y192919000I-51000J0D01*
G01*
G37*
G36*
G01*
X3394000Y189619000D02*
X2194000Y189619000D01*
G75*
G02*
X2143000Y189670000I0J51000D01*
G01*
X2143000Y190570000D01*
G75*
G02*
X2194000Y190621000I51000J0D01*
G01*
X3394000Y190621000D01*
G75*
G02*
X3445000Y190570000I0J-51000D01*
G01*
X3445000Y189670000D01*
G75*
G02*
X3394000Y189619000I-51000J0D01*
G01*
G37*
G36*
G01*
X-20482000Y192919000D02*
X-21682000Y192919000D01*
G75*
G02*
X-21733000Y192970000I0J51000D01*
G01*
X-21733000Y193870000D01*
G75*
G02*
X-21682000Y193921000I51000J0D01*
G01*
X-20482000Y193921000D01*
G75*
G02*
X-20431000Y193870000I0J-51000D01*
G01*
X-20431000Y192970000D01*
G75*
G02*
X-20482000Y192919000I-51000J0D01*
G01*
G37*
G36*
G01*
X-20482000Y189619000D02*
X-21682000Y189619000D01*
G75*
G02*
X-21733000Y189670000I0J51000D01*
G01*
X-21733000Y190570000D01*
G75*
G02*
X-21682000Y190621000I51000J0D01*
G01*
X-20482000Y190621000D01*
G75*
G02*
X-20431000Y190570000I0J-51000D01*
G01*
X-20431000Y189670000D01*
G75*
G02*
X-20482000Y189619000I-51000J0D01*
G01*
G37*
G36*
G01*
X-44231000Y192919000D02*
X-45431000Y192919000D01*
G75*
G02*
X-45482000Y192970000I0J51000D01*
G01*
X-45482000Y193870000D01*
G75*
G02*
X-45431000Y193921000I51000J0D01*
G01*
X-44231000Y193921000D01*
G75*
G02*
X-44180000Y193870000I0J-51000D01*
G01*
X-44180000Y192970000D01*
G75*
G02*
X-44231000Y192919000I-51000J0D01*
G01*
G37*
G36*
G01*
X-44231000Y189619000D02*
X-45431000Y189619000D01*
G75*
G02*
X-45482000Y189670000I0J51000D01*
G01*
X-45482000Y190570000D01*
G75*
G02*
X-45431000Y190621000I51000J0D01*
G01*
X-44231000Y190621000D01*
G75*
G02*
X-44180000Y190570000I0J-51000D01*
G01*
X-44180000Y189670000D01*
G75*
G02*
X-44231000Y189619000I-51000J0D01*
G01*
G37*
G36*
G01*
X-80045000Y192919000D02*
X-81245000Y192919000D01*
G75*
G02*
X-81296000Y192970000I0J51000D01*
G01*
X-81296000Y193870000D01*
G75*
G02*
X-81245000Y193921000I51000J0D01*
G01*
X-80045000Y193921000D01*
G75*
G02*
X-79994000Y193870000I0J-51000D01*
G01*
X-79994000Y192970000D01*
G75*
G02*
X-80045000Y192919000I-51000J0D01*
G01*
G37*
G36*
G01*
X-80045000Y189619000D02*
X-81245000Y189619000D01*
G75*
G02*
X-81296000Y189670000I0J51000D01*
G01*
X-81296000Y190570000D01*
G75*
G02*
X-81245000Y190621000I51000J0D01*
G01*
X-80045000Y190621000D01*
G75*
G02*
X-79994000Y190570000I0J-51000D01*
G01*
X-79994000Y189670000D01*
G75*
G02*
X-80045000Y189619000I-51000J0D01*
G01*
G37*
G36*
G01*
X-97063000Y191648000D02*
X-98263000Y191648000D01*
G75*
G02*
X-98314000Y191699000I0J51000D01*
G01*
X-98314000Y192599000D01*
G75*
G02*
X-98263000Y192650000I51000J0D01*
G01*
X-97063000Y192650000D01*
G75*
G02*
X-97012000Y192599000I0J-51000D01*
G01*
X-97012000Y191699000D01*
G75*
G02*
X-97063000Y191648000I-51000J0D01*
G01*
G37*
G36*
G01*
X-97063000Y188348000D02*
X-98263000Y188348000D01*
G75*
G02*
X-98314000Y188399000I0J51000D01*
G01*
X-98314000Y189299000D01*
G75*
G02*
X-98263000Y189350000I51000J0D01*
G01*
X-97063000Y189350000D01*
G75*
G02*
X-97012000Y189299000I0J-51000D01*
G01*
X-97012000Y188399000D01*
G75*
G02*
X-97063000Y188348000I-51000J0D01*
G01*
G37*
G36*
G01*
X-115732000Y192920000D02*
X-116932000Y192920000D01*
G75*
G02*
X-116983000Y192971000I0J51000D01*
G01*
X-116983000Y193871000D01*
G75*
G02*
X-116932000Y193922000I51000J0D01*
G01*
X-115732000Y193922000D01*
G75*
G02*
X-115681000Y193871000I0J-51000D01*
G01*
X-115681000Y192971000D01*
G75*
G02*
X-115732000Y192920000I-51000J0D01*
G01*
G37*
G36*
G01*
X-115732000Y189620000D02*
X-116932000Y189620000D01*
G75*
G02*
X-116983000Y189671000I0J51000D01*
G01*
X-116983000Y190571000D01*
G75*
G02*
X-116932000Y190622000I51000J0D01*
G01*
X-115732000Y190622000D01*
G75*
G02*
X-115681000Y190571000I0J-51000D01*
G01*
X-115681000Y189671000D01*
G75*
G02*
X-115732000Y189620000I-51000J0D01*
G01*
G37*
G36*
G01*
X103597000Y212477000D02*
X102397000Y212477000D01*
G75*
G02*
X102346000Y212528000I0J51000D01*
G01*
X102346000Y213428000D01*
G75*
G02*
X102397000Y213479000I51000J0D01*
G01*
X103597000Y213479000D01*
G75*
G02*
X103648000Y213428000I0J-51000D01*
G01*
X103648000Y212528000D01*
G75*
G02*
X103597000Y212477000I-51000J0D01*
G01*
G37*
G36*
G01*
X103597000Y209177000D02*
X102397000Y209177000D01*
G75*
G02*
X102346000Y209228000I0J51000D01*
G01*
X102346000Y210128000D01*
G75*
G02*
X102397000Y210179000I51000J0D01*
G01*
X103597000Y210179000D01*
G75*
G02*
X103648000Y210128000I0J-51000D01*
G01*
X103648000Y209228000D01*
G75*
G02*
X103597000Y209177000I-51000J0D01*
G01*
G37*
G36*
G01*
X96104000Y207778000D02*
X94904000Y207778000D01*
G75*
G02*
X94853000Y207829000I0J51000D01*
G01*
X94853000Y208729000D01*
G75*
G02*
X94904000Y208780000I51000J0D01*
G01*
X96104000Y208780000D01*
G75*
G02*
X96155000Y208729000I0J-51000D01*
G01*
X96155000Y207829000D01*
G75*
G02*
X96104000Y207778000I-51000J0D01*
G01*
G37*
G36*
G01*
X96104000Y204478000D02*
X94904000Y204478000D01*
G75*
G02*
X94853000Y204529000I0J51000D01*
G01*
X94853000Y205429000D01*
G75*
G02*
X94904000Y205480000I51000J0D01*
G01*
X96104000Y205480000D01*
G75*
G02*
X96155000Y205429000I0J-51000D01*
G01*
X96155000Y204529000D01*
G75*
G02*
X96104000Y204478000I-51000J0D01*
G01*
G37*
G36*
G01*
X70069000Y212350000D02*
X68869000Y212350000D01*
G75*
G02*
X68818000Y212401000I0J51000D01*
G01*
X68818000Y213301000D01*
G75*
G02*
X68869000Y213352000I51000J0D01*
G01*
X70069000Y213352000D01*
G75*
G02*
X70120000Y213301000I0J-51000D01*
G01*
X70120000Y212401000D01*
G75*
G02*
X70069000Y212350000I-51000J0D01*
G01*
G37*
G36*
G01*
X70069000Y209050000D02*
X68869000Y209050000D01*
G75*
G02*
X68818000Y209101000I0J51000D01*
G01*
X68818000Y210001000D01*
G75*
G02*
X68869000Y210052000I51000J0D01*
G01*
X70069000Y210052000D01*
G75*
G02*
X70120000Y210001000I0J-51000D01*
G01*
X70120000Y209101000D01*
G75*
G02*
X70069000Y209050000I-51000J0D01*
G01*
G37*
G36*
G01*
X48479000Y212350000D02*
X47279000Y212350000D01*
G75*
G02*
X47228000Y212401000I0J51000D01*
G01*
X47228000Y213301000D01*
G75*
G02*
X47279000Y213352000I51000J0D01*
G01*
X48479000Y213352000D01*
G75*
G02*
X48530000Y213301000I0J-51000D01*
G01*
X48530000Y212401000D01*
G75*
G02*
X48479000Y212350000I-51000J0D01*
G01*
G37*
G36*
G01*
X48479000Y209050000D02*
X47279000Y209050000D01*
G75*
G02*
X47228000Y209101000I0J51000D01*
G01*
X47228000Y210001000D01*
G75*
G02*
X47279000Y210052000I51000J0D01*
G01*
X48479000Y210052000D01*
G75*
G02*
X48530000Y210001000I0J-51000D01*
G01*
X48530000Y209101000D01*
G75*
G02*
X48479000Y209050000I-51000J0D01*
G01*
G37*
G36*
G01*
X29429000Y212350000D02*
X28229000Y212350000D01*
G75*
G02*
X28178000Y212401000I0J51000D01*
G01*
X28178000Y213301000D01*
G75*
G02*
X28229000Y213352000I51000J0D01*
G01*
X29429000Y213352000D01*
G75*
G02*
X29480000Y213301000I0J-51000D01*
G01*
X29480000Y212401000D01*
G75*
G02*
X29429000Y212350000I-51000J0D01*
G01*
G37*
G36*
G01*
X29429000Y209050000D02*
X28229000Y209050000D01*
G75*
G02*
X28178000Y209101000I0J51000D01*
G01*
X28178000Y210001000D01*
G75*
G02*
X28229000Y210052000I51000J0D01*
G01*
X29429000Y210052000D01*
G75*
G02*
X29480000Y210001000I0J-51000D01*
G01*
X29480000Y209101000D01*
G75*
G02*
X29429000Y209050000I-51000J0D01*
G01*
G37*
G36*
G01*
X10379000Y212350000D02*
X9179000Y212350000D01*
G75*
G02*
X9128000Y212401000I0J51000D01*
G01*
X9128000Y213301000D01*
G75*
G02*
X9179000Y213352000I51000J0D01*
G01*
X10379000Y213352000D01*
G75*
G02*
X10430000Y213301000I0J-51000D01*
G01*
X10430000Y212401000D01*
G75*
G02*
X10379000Y212350000I-51000J0D01*
G01*
G37*
G36*
G01*
X10379000Y209050000D02*
X9179000Y209050000D01*
G75*
G02*
X9128000Y209101000I0J51000D01*
G01*
X9128000Y210001000D01*
G75*
G02*
X9179000Y210052000I51000J0D01*
G01*
X10379000Y210052000D01*
G75*
G02*
X10430000Y210001000I0J-51000D01*
G01*
X10430000Y209101000D01*
G75*
G02*
X10379000Y209050000I-51000J0D01*
G01*
G37*
G36*
G01*
X-8671000Y212350000D02*
X-9871000Y212350000D01*
G75*
G02*
X-9922000Y212401000I0J51000D01*
G01*
X-9922000Y213301000D01*
G75*
G02*
X-9871000Y213352000I51000J0D01*
G01*
X-8671000Y213352000D01*
G75*
G02*
X-8620000Y213301000I0J-51000D01*
G01*
X-8620000Y212401000D01*
G75*
G02*
X-8671000Y212350000I-51000J0D01*
G01*
G37*
G36*
G01*
X-8671000Y209050000D02*
X-9871000Y209050000D01*
G75*
G02*
X-9922000Y209101000I0J51000D01*
G01*
X-9922000Y210001000D01*
G75*
G02*
X-9871000Y210052000I51000J0D01*
G01*
X-8671000Y210052000D01*
G75*
G02*
X-8620000Y210001000I0J-51000D01*
G01*
X-8620000Y209101000D01*
G75*
G02*
X-8671000Y209050000I-51000J0D01*
G01*
G37*
G36*
G01*
X-27721000Y212350000D02*
X-28921000Y212350000D01*
G75*
G02*
X-28972000Y212401000I0J51000D01*
G01*
X-28972000Y213301000D01*
G75*
G02*
X-28921000Y213352000I51000J0D01*
G01*
X-27721000Y213352000D01*
G75*
G02*
X-27670000Y213301000I0J-51000D01*
G01*
X-27670000Y212401000D01*
G75*
G02*
X-27721000Y212350000I-51000J0D01*
G01*
G37*
G36*
G01*
X-27721000Y209050000D02*
X-28921000Y209050000D01*
G75*
G02*
X-28972000Y209101000I0J51000D01*
G01*
X-28972000Y210001000D01*
G75*
G02*
X-28921000Y210052000I51000J0D01*
G01*
X-27721000Y210052000D01*
G75*
G02*
X-27670000Y210001000I0J-51000D01*
G01*
X-27670000Y209101000D01*
G75*
G02*
X-27721000Y209050000I-51000J0D01*
G01*
G37*
G36*
G01*
X-46771000Y212350000D02*
X-47971000Y212350000D01*
G75*
G02*
X-48022000Y212401000I0J51000D01*
G01*
X-48022000Y213301000D01*
G75*
G02*
X-47971000Y213352000I51000J0D01*
G01*
X-46771000Y213352000D01*
G75*
G02*
X-46720000Y213301000I0J-51000D01*
G01*
X-46720000Y212401000D01*
G75*
G02*
X-46771000Y212350000I-51000J0D01*
G01*
G37*
G36*
G01*
X-46771000Y209050000D02*
X-47971000Y209050000D01*
G75*
G02*
X-48022000Y209101000I0J51000D01*
G01*
X-48022000Y210001000D01*
G75*
G02*
X-47971000Y210052000I51000J0D01*
G01*
X-46771000Y210052000D01*
G75*
G02*
X-46720000Y210001000I0J-51000D01*
G01*
X-46720000Y209101000D01*
G75*
G02*
X-46771000Y209050000I-51000J0D01*
G01*
G37*
G36*
G01*
X-65821000Y212350000D02*
X-67021000Y212350000D01*
G75*
G02*
X-67072000Y212401000I0J51000D01*
G01*
X-67072000Y213301000D01*
G75*
G02*
X-67021000Y213352000I51000J0D01*
G01*
X-65821000Y213352000D01*
G75*
G02*
X-65770000Y213301000I0J-51000D01*
G01*
X-65770000Y212401000D01*
G75*
G02*
X-65821000Y212350000I-51000J0D01*
G01*
G37*
G36*
G01*
X-65821000Y209050000D02*
X-67021000Y209050000D01*
G75*
G02*
X-67072000Y209101000I0J51000D01*
G01*
X-67072000Y210001000D01*
G75*
G02*
X-67021000Y210052000I51000J0D01*
G01*
X-65821000Y210052000D01*
G75*
G02*
X-65770000Y210001000I0J-51000D01*
G01*
X-65770000Y209101000D01*
G75*
G02*
X-65821000Y209050000I-51000J0D01*
G01*
G37*
G36*
G01*
X-84871000Y212350000D02*
X-86071000Y212350000D01*
G75*
G02*
X-86122000Y212401000I0J51000D01*
G01*
X-86122000Y213301000D01*
G75*
G02*
X-86071000Y213352000I51000J0D01*
G01*
X-84871000Y213352000D01*
G75*
G02*
X-84820000Y213301000I0J-51000D01*
G01*
X-84820000Y212401000D01*
G75*
G02*
X-84871000Y212350000I-51000J0D01*
G01*
G37*
G36*
G01*
X-84871000Y209050000D02*
X-86071000Y209050000D01*
G75*
G02*
X-86122000Y209101000I0J51000D01*
G01*
X-86122000Y210001000D01*
G75*
G02*
X-86071000Y210052000I51000J0D01*
G01*
X-84871000Y210052000D01*
G75*
G02*
X-84820000Y210001000I0J-51000D01*
G01*
X-84820000Y209101000D01*
G75*
G02*
X-84871000Y209050000I-51000J0D01*
G01*
G37*
G36*
G01*
X-110779000Y212350000D02*
X-111979000Y212350000D01*
G75*
G02*
X-112030000Y212401000I0J51000D01*
G01*
X-112030000Y213301000D01*
G75*
G02*
X-111979000Y213352000I51000J0D01*
G01*
X-110779000Y213352000D01*
G75*
G02*
X-110728000Y213301000I0J-51000D01*
G01*
X-110728000Y212401000D01*
G75*
G02*
X-110779000Y212350000I-51000J0D01*
G01*
G37*
G36*
G01*
X-110779000Y209050000D02*
X-111979000Y209050000D01*
G75*
G02*
X-112030000Y209101000I0J51000D01*
G01*
X-112030000Y210001000D01*
G75*
G02*
X-111979000Y210052000I51000J0D01*
G01*
X-110779000Y210052000D01*
G75*
G02*
X-110728000Y210001000I0J-51000D01*
G01*
X-110728000Y209101000D01*
G75*
G02*
X-110779000Y209050000I-51000J0D01*
G01*
G37*
G36*
G01*
X103495400Y231401000D02*
X102295400Y231401000D01*
G75*
G02*
X102244400Y231452000I0J51000D01*
G01*
X102244400Y232352000D01*
G75*
G02*
X102295400Y232403000I51000J0D01*
G01*
X103495400Y232403000D01*
G75*
G02*
X103546400Y232352000I0J-51000D01*
G01*
X103546400Y231452000D01*
G75*
G02*
X103495400Y231401000I-51000J0D01*
G01*
G37*
G36*
G01*
X103495400Y228101000D02*
X102295400Y228101000D01*
G75*
G02*
X102244400Y228152000I0J51000D01*
G01*
X102244400Y229052000D01*
G75*
G02*
X102295400Y229103000I51000J0D01*
G01*
X103495400Y229103000D01*
G75*
G02*
X103546400Y229052000I0J-51000D01*
G01*
X103546400Y228152000D01*
G75*
G02*
X103495400Y228101000I-51000J0D01*
G01*
G37*
G36*
G01*
X84293000Y231400000D02*
X83093000Y231400000D01*
G75*
G02*
X83042000Y231451000I0J51000D01*
G01*
X83042000Y232351000D01*
G75*
G02*
X83093000Y232402000I51000J0D01*
G01*
X84293000Y232402000D01*
G75*
G02*
X84344000Y232351000I0J-51000D01*
G01*
X84344000Y231451000D01*
G75*
G02*
X84293000Y231400000I-51000J0D01*
G01*
G37*
G36*
G01*
X84293000Y228100000D02*
X83093000Y228100000D01*
G75*
G02*
X83042000Y228151000I0J51000D01*
G01*
X83042000Y229051000D01*
G75*
G02*
X83093000Y229102000I51000J0D01*
G01*
X84293000Y229102000D01*
G75*
G02*
X84344000Y229051000I0J-51000D01*
G01*
X84344000Y228151000D01*
G75*
G02*
X84293000Y228100000I-51000J0D01*
G01*
G37*
G36*
G01*
X41621000Y231400000D02*
X40421000Y231400000D01*
G75*
G02*
X40370000Y231451000I0J51000D01*
G01*
X40370000Y232351000D01*
G75*
G02*
X40421000Y232402000I51000J0D01*
G01*
X41621000Y232402000D01*
G75*
G02*
X41672000Y232351000I0J-51000D01*
G01*
X41672000Y231451000D01*
G75*
G02*
X41621000Y231400000I-51000J0D01*
G01*
G37*
G36*
G01*
X41621000Y228100000D02*
X40421000Y228100000D01*
G75*
G02*
X40370000Y228151000I0J51000D01*
G01*
X40370000Y229051000D01*
G75*
G02*
X40421000Y229102000I51000J0D01*
G01*
X41621000Y229102000D01*
G75*
G02*
X41672000Y229051000I0J-51000D01*
G01*
X41672000Y228151000D01*
G75*
G02*
X41621000Y228100000I-51000J0D01*
G01*
G37*
G36*
G01*
X38954000Y231400000D02*
X37754000Y231400000D01*
G75*
G02*
X37703000Y231451000I0J51000D01*
G01*
X37703000Y232351000D01*
G75*
G02*
X37754000Y232402000I51000J0D01*
G01*
X38954000Y232402000D01*
G75*
G02*
X39005000Y232351000I0J-51000D01*
G01*
X39005000Y231451000D01*
G75*
G02*
X38954000Y231400000I-51000J0D01*
G01*
G37*
G36*
G01*
X38954000Y228100000D02*
X37754000Y228100000D01*
G75*
G02*
X37703000Y228151000I0J51000D01*
G01*
X37703000Y229051000D01*
G75*
G02*
X37754000Y229102000I51000J0D01*
G01*
X38954000Y229102000D01*
G75*
G02*
X39005000Y229051000I0J-51000D01*
G01*
X39005000Y228151000D01*
G75*
G02*
X38954000Y228100000I-51000J0D01*
G01*
G37*
G36*
G01*
X19904000Y231400000D02*
X18704000Y231400000D01*
G75*
G02*
X18653000Y231451000I0J51000D01*
G01*
X18653000Y232351000D01*
G75*
G02*
X18704000Y232402000I51000J0D01*
G01*
X19904000Y232402000D01*
G75*
G02*
X19955000Y232351000I0J-51000D01*
G01*
X19955000Y231451000D01*
G75*
G02*
X19904000Y231400000I-51000J0D01*
G01*
G37*
G36*
G01*
X19904000Y228100000D02*
X18704000Y228100000D01*
G75*
G02*
X18653000Y228151000I0J51000D01*
G01*
X18653000Y229051000D01*
G75*
G02*
X18704000Y229102000I51000J0D01*
G01*
X19904000Y229102000D01*
G75*
G02*
X19955000Y229051000I0J-51000D01*
G01*
X19955000Y228151000D01*
G75*
G02*
X19904000Y228100000I-51000J0D01*
G01*
G37*
G36*
G01*
X854000Y231400000D02*
X-346000Y231400000D01*
G75*
G02*
X-397000Y231451000I0J51000D01*
G01*
X-397000Y232351000D01*
G75*
G02*
X-346000Y232402000I51000J0D01*
G01*
X854000Y232402000D01*
G75*
G02*
X905000Y232351000I0J-51000D01*
G01*
X905000Y231451000D01*
G75*
G02*
X854000Y231400000I-51000J0D01*
G01*
G37*
G36*
G01*
X854000Y228100000D02*
X-346000Y228100000D01*
G75*
G02*
X-397000Y228151000I0J51000D01*
G01*
X-397000Y229051000D01*
G75*
G02*
X-346000Y229102000I51000J0D01*
G01*
X854000Y229102000D01*
G75*
G02*
X905000Y229051000I0J-51000D01*
G01*
X905000Y228151000D01*
G75*
G02*
X854000Y228100000I-51000J0D01*
G01*
G37*
G36*
G01*
X-18196000Y231400000D02*
X-19396000Y231400000D01*
G75*
G02*
X-19447000Y231451000I0J51000D01*
G01*
X-19447000Y232351000D01*
G75*
G02*
X-19396000Y232402000I51000J0D01*
G01*
X-18196000Y232402000D01*
G75*
G02*
X-18145000Y232351000I0J-51000D01*
G01*
X-18145000Y231451000D01*
G75*
G02*
X-18196000Y231400000I-51000J0D01*
G01*
G37*
G36*
G01*
X-18196000Y228100000D02*
X-19396000Y228100000D01*
G75*
G02*
X-19447000Y228151000I0J51000D01*
G01*
X-19447000Y229051000D01*
G75*
G02*
X-19396000Y229102000I51000J0D01*
G01*
X-18196000Y229102000D01*
G75*
G02*
X-18145000Y229051000I0J-51000D01*
G01*
X-18145000Y228151000D01*
G75*
G02*
X-18196000Y228100000I-51000J0D01*
G01*
G37*
G36*
G01*
X-37246000Y231400000D02*
X-38446000Y231400000D01*
G75*
G02*
X-38497000Y231451000I0J51000D01*
G01*
X-38497000Y232351000D01*
G75*
G02*
X-38446000Y232402000I51000J0D01*
G01*
X-37246000Y232402000D01*
G75*
G02*
X-37195000Y232351000I0J-51000D01*
G01*
X-37195000Y231451000D01*
G75*
G02*
X-37246000Y231400000I-51000J0D01*
G01*
G37*
G36*
G01*
X-37246000Y228100000D02*
X-38446000Y228100000D01*
G75*
G02*
X-38497000Y228151000I0J51000D01*
G01*
X-38497000Y229051000D01*
G75*
G02*
X-38446000Y229102000I51000J0D01*
G01*
X-37246000Y229102000D01*
G75*
G02*
X-37195000Y229051000I0J-51000D01*
G01*
X-37195000Y228151000D01*
G75*
G02*
X-37246000Y228100000I-51000J0D01*
G01*
G37*
G36*
G01*
X-56296000Y231400000D02*
X-57496000Y231400000D01*
G75*
G02*
X-57547000Y231451000I0J51000D01*
G01*
X-57547000Y232351000D01*
G75*
G02*
X-57496000Y232402000I51000J0D01*
G01*
X-56296000Y232402000D01*
G75*
G02*
X-56245000Y232351000I0J-51000D01*
G01*
X-56245000Y231451000D01*
G75*
G02*
X-56296000Y231400000I-51000J0D01*
G01*
G37*
G36*
G01*
X-56296000Y228100000D02*
X-57496000Y228100000D01*
G75*
G02*
X-57547000Y228151000I0J51000D01*
G01*
X-57547000Y229051000D01*
G75*
G02*
X-57496000Y229102000I51000J0D01*
G01*
X-56296000Y229102000D01*
G75*
G02*
X-56245000Y229051000I0J-51000D01*
G01*
X-56245000Y228151000D01*
G75*
G02*
X-56296000Y228100000I-51000J0D01*
G01*
G37*
G36*
G01*
X-75346000Y231400000D02*
X-76546000Y231400000D01*
G75*
G02*
X-76597000Y231451000I0J51000D01*
G01*
X-76597000Y232351000D01*
G75*
G02*
X-76546000Y232402000I51000J0D01*
G01*
X-75346000Y232402000D01*
G75*
G02*
X-75295000Y232351000I0J-51000D01*
G01*
X-75295000Y231451000D01*
G75*
G02*
X-75346000Y231400000I-51000J0D01*
G01*
G37*
G36*
G01*
X-75346000Y228100000D02*
X-76546000Y228100000D01*
G75*
G02*
X-76597000Y228151000I0J51000D01*
G01*
X-76597000Y229051000D01*
G75*
G02*
X-76546000Y229102000I51000J0D01*
G01*
X-75346000Y229102000D01*
G75*
G02*
X-75295000Y229051000I0J-51000D01*
G01*
X-75295000Y228151000D01*
G75*
G02*
X-75346000Y228100000I-51000J0D01*
G01*
G37*
G36*
G01*
X-94269000Y231400000D02*
X-95469000Y231400000D01*
G75*
G02*
X-95520000Y231451000I0J51000D01*
G01*
X-95520000Y232351000D01*
G75*
G02*
X-95469000Y232402000I51000J0D01*
G01*
X-94269000Y232402000D01*
G75*
G02*
X-94218000Y232351000I0J-51000D01*
G01*
X-94218000Y231451000D01*
G75*
G02*
X-94269000Y231400000I-51000J0D01*
G01*
G37*
G36*
G01*
X-94269000Y228100000D02*
X-95469000Y228100000D01*
G75*
G02*
X-95520000Y228151000I0J51000D01*
G01*
X-95520000Y229051000D01*
G75*
G02*
X-95469000Y229102000I51000J0D01*
G01*
X-94269000Y229102000D01*
G75*
G02*
X-94218000Y229051000I0J-51000D01*
G01*
X-94218000Y228151000D01*
G75*
G02*
X-94269000Y228100000I-51000J0D01*
G01*
G37*
G36*
G01*
X-115478000Y231400000D02*
X-116678000Y231400000D01*
G75*
G02*
X-116729000Y231451000I0J51000D01*
G01*
X-116729000Y232351000D01*
G75*
G02*
X-116678000Y232402000I51000J0D01*
G01*
X-115478000Y232402000D01*
G75*
G02*
X-115427000Y232351000I0J-51000D01*
G01*
X-115427000Y231451000D01*
G75*
G02*
X-115478000Y231400000I-51000J0D01*
G01*
G37*
G36*
G01*
X-115478000Y228100000D02*
X-116678000Y228100000D01*
G75*
G02*
X-116729000Y228151000I0J51000D01*
G01*
X-116729000Y229051000D01*
G75*
G02*
X-116678000Y229102000I51000J0D01*
G01*
X-115478000Y229102000D01*
G75*
G02*
X-115427000Y229051000I0J-51000D01*
G01*
X-115427000Y228151000D01*
G75*
G02*
X-115478000Y228100000I-51000J0D01*
G01*
G37*
G36*
G01*
X103470000Y250349400D02*
X102270000Y250349400D01*
G75*
G02*
X102219000Y250400400I0J51000D01*
G01*
X102219000Y251300400D01*
G75*
G02*
X102270000Y251351400I51000J0D01*
G01*
X103470000Y251351400D01*
G75*
G02*
X103521000Y251300400I0J-51000D01*
G01*
X103521000Y250400400D01*
G75*
G02*
X103470000Y250349400I-51000J0D01*
G01*
G37*
G36*
G01*
X103470000Y247049400D02*
X102270000Y247049400D01*
G75*
G02*
X102219000Y247100400I0J51000D01*
G01*
X102219000Y248000400D01*
G75*
G02*
X102270000Y248051400I51000J0D01*
G01*
X103470000Y248051400D01*
G75*
G02*
X103521000Y248000400I0J-51000D01*
G01*
X103521000Y247100400D01*
G75*
G02*
X103470000Y247049400I-51000J0D01*
G01*
G37*
G36*
G01*
X91405000Y250324000D02*
X90205000Y250324000D01*
G75*
G02*
X90154000Y250375000I0J51000D01*
G01*
X90154000Y251275000D01*
G75*
G02*
X90205000Y251326000I51000J0D01*
G01*
X91405000Y251326000D01*
G75*
G02*
X91456000Y251275000I0J-51000D01*
G01*
X91456000Y250375000D01*
G75*
G02*
X91405000Y250324000I-51000J0D01*
G01*
G37*
G36*
G01*
X91405000Y247024000D02*
X90205000Y247024000D01*
G75*
G02*
X90154000Y247075000I0J51000D01*
G01*
X90154000Y247975000D01*
G75*
G02*
X90205000Y248026000I51000J0D01*
G01*
X91405000Y248026000D01*
G75*
G02*
X91456000Y247975000I0J-51000D01*
G01*
X91456000Y247075000D01*
G75*
G02*
X91405000Y247024000I-51000J0D01*
G01*
G37*
G36*
G01*
X72355000Y250323000D02*
X71155000Y250323000D01*
G75*
G02*
X71104000Y250374000I0J51000D01*
G01*
X71104000Y251274000D01*
G75*
G02*
X71155000Y251325000I51000J0D01*
G01*
X72355000Y251325000D01*
G75*
G02*
X72406000Y251274000I0J-51000D01*
G01*
X72406000Y250374000D01*
G75*
G02*
X72355000Y250323000I-51000J0D01*
G01*
G37*
G36*
G01*
X72355000Y247023000D02*
X71155000Y247023000D01*
G75*
G02*
X71104000Y247074000I0J51000D01*
G01*
X71104000Y247974000D01*
G75*
G02*
X71155000Y248025000I51000J0D01*
G01*
X72355000Y248025000D01*
G75*
G02*
X72406000Y247974000I0J-51000D01*
G01*
X72406000Y247074000D01*
G75*
G02*
X72355000Y247023000I-51000J0D01*
G01*
G37*
G36*
G01*
X53305000Y250323000D02*
X52105000Y250323000D01*
G75*
G02*
X52054000Y250374000I0J51000D01*
G01*
X52054000Y251274000D01*
G75*
G02*
X52105000Y251325000I51000J0D01*
G01*
X53305000Y251325000D01*
G75*
G02*
X53356000Y251274000I0J-51000D01*
G01*
X53356000Y250374000D01*
G75*
G02*
X53305000Y250323000I-51000J0D01*
G01*
G37*
G36*
G01*
X53305000Y247023000D02*
X52105000Y247023000D01*
G75*
G02*
X52054000Y247074000I0J51000D01*
G01*
X52054000Y247974000D01*
G75*
G02*
X52105000Y248025000I51000J0D01*
G01*
X53305000Y248025000D01*
G75*
G02*
X53356000Y247974000I0J-51000D01*
G01*
X53356000Y247074000D01*
G75*
G02*
X53305000Y247023000I-51000J0D01*
G01*
G37*
G36*
G01*
X34255000Y250323000D02*
X33055000Y250323000D01*
G75*
G02*
X33004000Y250374000I0J51000D01*
G01*
X33004000Y251274000D01*
G75*
G02*
X33055000Y251325000I51000J0D01*
G01*
X34255000Y251325000D01*
G75*
G02*
X34306000Y251274000I0J-51000D01*
G01*
X34306000Y250374000D01*
G75*
G02*
X34255000Y250323000I-51000J0D01*
G01*
G37*
G36*
G01*
X34255000Y247023000D02*
X33055000Y247023000D01*
G75*
G02*
X33004000Y247074000I0J51000D01*
G01*
X33004000Y247974000D01*
G75*
G02*
X33055000Y248025000I51000J0D01*
G01*
X34255000Y248025000D01*
G75*
G02*
X34306000Y247974000I0J-51000D01*
G01*
X34306000Y247074000D01*
G75*
G02*
X34255000Y247023000I-51000J0D01*
G01*
G37*
G36*
G01*
X15205000Y250323000D02*
X14005000Y250323000D01*
G75*
G02*
X13954000Y250374000I0J51000D01*
G01*
X13954000Y251274000D01*
G75*
G02*
X14005000Y251325000I51000J0D01*
G01*
X15205000Y251325000D01*
G75*
G02*
X15256000Y251274000I0J-51000D01*
G01*
X15256000Y250374000D01*
G75*
G02*
X15205000Y250323000I-51000J0D01*
G01*
G37*
G36*
G01*
X15205000Y247023000D02*
X14005000Y247023000D01*
G75*
G02*
X13954000Y247074000I0J51000D01*
G01*
X13954000Y247974000D01*
G75*
G02*
X14005000Y248025000I51000J0D01*
G01*
X15205000Y248025000D01*
G75*
G02*
X15256000Y247974000I0J-51000D01*
G01*
X15256000Y247074000D01*
G75*
G02*
X15205000Y247023000I-51000J0D01*
G01*
G37*
G36*
G01*
X-20355000Y250324000D02*
X-21555000Y250324000D01*
G75*
G02*
X-21606000Y250375000I0J51000D01*
G01*
X-21606000Y251275000D01*
G75*
G02*
X-21555000Y251326000I51000J0D01*
G01*
X-20355000Y251326000D01*
G75*
G02*
X-20304000Y251275000I0J-51000D01*
G01*
X-20304000Y250375000D01*
G75*
G02*
X-20355000Y250324000I-51000J0D01*
G01*
G37*
G36*
G01*
X-20355000Y247024000D02*
X-21555000Y247024000D01*
G75*
G02*
X-21606000Y247075000I0J51000D01*
G01*
X-21606000Y247975000D01*
G75*
G02*
X-21555000Y248026000I51000J0D01*
G01*
X-20355000Y248026000D01*
G75*
G02*
X-20304000Y247975000I0J-51000D01*
G01*
X-20304000Y247075000D01*
G75*
G02*
X-20355000Y247024000I-51000J0D01*
G01*
G37*
G36*
G01*
X-22895000Y250323000D02*
X-24095000Y250323000D01*
G75*
G02*
X-24146000Y250374000I0J51000D01*
G01*
X-24146000Y251274000D01*
G75*
G02*
X-24095000Y251325000I51000J0D01*
G01*
X-22895000Y251325000D01*
G75*
G02*
X-22844000Y251274000I0J-51000D01*
G01*
X-22844000Y250374000D01*
G75*
G02*
X-22895000Y250323000I-51000J0D01*
G01*
G37*
G36*
G01*
X-22895000Y247023000D02*
X-24095000Y247023000D01*
G75*
G02*
X-24146000Y247074000I0J51000D01*
G01*
X-24146000Y247974000D01*
G75*
G02*
X-24095000Y248025000I51000J0D01*
G01*
X-22895000Y248025000D01*
G75*
G02*
X-22844000Y247974000I0J-51000D01*
G01*
X-22844000Y247074000D01*
G75*
G02*
X-22895000Y247023000I-51000J0D01*
G01*
G37*
G36*
G01*
X-41945000Y250323000D02*
X-43145000Y250323000D01*
G75*
G02*
X-43196000Y250374000I0J51000D01*
G01*
X-43196000Y251274000D01*
G75*
G02*
X-43145000Y251325000I51000J0D01*
G01*
X-41945000Y251325000D01*
G75*
G02*
X-41894000Y251274000I0J-51000D01*
G01*
X-41894000Y250374000D01*
G75*
G02*
X-41945000Y250323000I-51000J0D01*
G01*
G37*
G36*
G01*
X-41945000Y247023000D02*
X-43145000Y247023000D01*
G75*
G02*
X-43196000Y247074000I0J51000D01*
G01*
X-43196000Y247974000D01*
G75*
G02*
X-43145000Y248025000I51000J0D01*
G01*
X-41945000Y248025000D01*
G75*
G02*
X-41894000Y247974000I0J-51000D01*
G01*
X-41894000Y247074000D01*
G75*
G02*
X-41945000Y247023000I-51000J0D01*
G01*
G37*
G36*
G01*
X-60995000Y250323000D02*
X-62195000Y250323000D01*
G75*
G02*
X-62246000Y250374000I0J51000D01*
G01*
X-62246000Y251274000D01*
G75*
G02*
X-62195000Y251325000I51000J0D01*
G01*
X-60995000Y251325000D01*
G75*
G02*
X-60944000Y251274000I0J-51000D01*
G01*
X-60944000Y250374000D01*
G75*
G02*
X-60995000Y250323000I-51000J0D01*
G01*
G37*
G36*
G01*
X-60995000Y247023000D02*
X-62195000Y247023000D01*
G75*
G02*
X-62246000Y247074000I0J51000D01*
G01*
X-62246000Y247974000D01*
G75*
G02*
X-62195000Y248025000I51000J0D01*
G01*
X-60995000Y248025000D01*
G75*
G02*
X-60944000Y247974000I0J-51000D01*
G01*
X-60944000Y247074000D01*
G75*
G02*
X-60995000Y247023000I-51000J0D01*
G01*
G37*
G36*
G01*
X-79918000Y250323000D02*
X-81118000Y250323000D01*
G75*
G02*
X-81169000Y250374000I0J51000D01*
G01*
X-81169000Y251274000D01*
G75*
G02*
X-81118000Y251325000I51000J0D01*
G01*
X-79918000Y251325000D01*
G75*
G02*
X-79867000Y251274000I0J-51000D01*
G01*
X-79867000Y250374000D01*
G75*
G02*
X-79918000Y250323000I-51000J0D01*
G01*
G37*
G36*
G01*
X-79918000Y247023000D02*
X-81118000Y247023000D01*
G75*
G02*
X-81169000Y247074000I0J51000D01*
G01*
X-81169000Y247974000D01*
G75*
G02*
X-81118000Y248025000I51000J0D01*
G01*
X-79918000Y248025000D01*
G75*
G02*
X-79867000Y247974000I0J-51000D01*
G01*
X-79867000Y247074000D01*
G75*
G02*
X-79918000Y247023000I-51000J0D01*
G01*
G37*
G36*
G01*
X-98968000Y250323000D02*
X-100168000Y250323000D01*
G75*
G02*
X-100219000Y250374000I0J51000D01*
G01*
X-100219000Y251274000D01*
G75*
G02*
X-100168000Y251325000I51000J0D01*
G01*
X-98968000Y251325000D01*
G75*
G02*
X-98917000Y251274000I0J-51000D01*
G01*
X-98917000Y250374000D01*
G75*
G02*
X-98968000Y250323000I-51000J0D01*
G01*
G37*
G36*
G01*
X-98968000Y247023000D02*
X-100168000Y247023000D01*
G75*
G02*
X-100219000Y247074000I0J51000D01*
G01*
X-100219000Y247974000D01*
G75*
G02*
X-100168000Y248025000I51000J0D01*
G01*
X-98968000Y248025000D01*
G75*
G02*
X-98917000Y247974000I0J-51000D01*
G01*
X-98917000Y247074000D01*
G75*
G02*
X-98968000Y247023000I-51000J0D01*
G01*
G37*
G36*
G01*
X-118145000Y250323000D02*
X-119345000Y250323000D01*
G75*
G02*
X-119396000Y250374000I0J51000D01*
G01*
X-119396000Y251274000D01*
G75*
G02*
X-119345000Y251325000I51000J0D01*
G01*
X-118145000Y251325000D01*
G75*
G02*
X-118094000Y251274000I0J-51000D01*
G01*
X-118094000Y250374000D01*
G75*
G02*
X-118145000Y250323000I-51000J0D01*
G01*
G37*
G36*
G01*
X-118145000Y247023000D02*
X-119345000Y247023000D01*
G75*
G02*
X-119396000Y247074000I0J51000D01*
G01*
X-119396000Y247974000D01*
G75*
G02*
X-119345000Y248025000I51000J0D01*
G01*
X-118145000Y248025000D01*
G75*
G02*
X-118094000Y247974000I0J-51000D01*
G01*
X-118094000Y247074000D01*
G75*
G02*
X-118145000Y247023000I-51000J0D01*
G01*
G37*
D10*
X113665000Y255905000D03*
D11*
X111125000Y250825000D03*
D10*
X107315000Y253365000D03*
D12*
X106045000Y250825000D03*
X116205000Y250825000D03*
D10*
X85090000Y255905000D03*
D11*
X82550000Y250825000D03*
D10*
X78740000Y253365000D03*
D12*
X77470000Y250825000D03*
X87630000Y250825000D03*
D10*
X66040000Y255905000D03*
D11*
X63500000Y250825000D03*
D10*
X59690000Y253365000D03*
D12*
X58420000Y250825000D03*
X68580000Y250825000D03*
D10*
X46990000Y255905000D03*
D11*
X44450000Y250825000D03*
D10*
X40640000Y253365000D03*
D12*
X39370000Y250825000D03*
X49530000Y250825000D03*
D10*
X27940000Y255905000D03*
D11*
X25400000Y250825000D03*
D10*
X21590000Y253365000D03*
D12*
X20320000Y250825000D03*
X30480000Y250825000D03*
D10*
X8890000Y255905000D03*
D11*
X6350000Y250825000D03*
D10*
X2540000Y253365000D03*
D12*
X1270000Y250825000D03*
X11430000Y250825000D03*
D10*
X-10160000Y255905000D03*
D11*
X-12700000Y250825000D03*
D10*
X-16510000Y253365000D03*
D12*
X-17780000Y250825000D03*
X-7620000Y250825000D03*
D10*
X-29210000Y255905000D03*
D11*
X-31750000Y250825000D03*
D10*
X-35560000Y253365000D03*
D12*
X-36830000Y250825000D03*
X-26670000Y250825000D03*
D10*
X-48260000Y255905000D03*
D11*
X-50800000Y250825000D03*
D10*
X-54610000Y253365000D03*
D12*
X-55880000Y250825000D03*
X-45720000Y250825000D03*
D10*
X-67310000Y255905000D03*
D11*
X-69850000Y250825000D03*
D10*
X-73660000Y253365000D03*
D12*
X-74930000Y250825000D03*
X-64770000Y250825000D03*
D10*
X-86360000Y255905000D03*
D11*
X-88900000Y250825000D03*
D10*
X-92710000Y253365000D03*
D12*
X-93980000Y250825000D03*
X-83820000Y250825000D03*
D10*
X-105410000Y255905000D03*
D11*
X-107950000Y250825000D03*
D10*
X-111760000Y253365000D03*
D12*
X-113030000Y250825000D03*
X-102870000Y250825000D03*
D10*
X-124460000Y255905000D03*
D11*
X-127000000Y250825000D03*
D10*
X-130810000Y253365000D03*
D12*
X-132080000Y250825000D03*
X-121920000Y250825000D03*
D16*
G36*
X-94851277Y193375572D02*
G01*
X-94794886Y193239434D01*
X-94751426Y193174391D01*
X-94751295Y193172395D01*
X-94752958Y193171284D01*
X-94754635Y193172011D01*
X-94766158Y193186052D01*
X-94784795Y193201348D01*
X-94806058Y193212713D01*
X-94829133Y193219713D01*
X-94853124Y193222076D01*
X-94877115Y193219713D01*
X-94900190Y193212713D01*
X-94921454Y193201348D01*
X-94940091Y193186053D01*
X-94951615Y193172011D01*
X-94953487Y193171307D01*
X-94955033Y193172576D01*
X-94954824Y193174391D01*
X-94911364Y193239434D01*
X-94854973Y193375572D01*
X-94853386Y193376790D01*
X-94851277Y193375572D01*
G37*
G36*
X-94951615Y194177989D02*
G01*
X-94940092Y194163948D01*
X-94921455Y194148652D01*
X-94900192Y194137287D01*
X-94877117Y194130287D01*
X-94853126Y194127924D01*
X-94829135Y194130287D01*
X-94806060Y194137287D01*
X-94784796Y194148652D01*
X-94766159Y194163947D01*
X-94754635Y194177989D01*
X-94752763Y194178693D01*
X-94751217Y194177424D01*
X-94751426Y194175609D01*
X-94794886Y194110566D01*
X-94851277Y193974428D01*
X-94852864Y193973210D01*
X-94854973Y193974428D01*
X-94911364Y194110566D01*
X-94954824Y194175609D01*
X-94954955Y194177605D01*
X-94953292Y194178716D01*
X-94951615Y194177989D01*
G37*
G36*
X40524931Y195046663D02*
G01*
X40560413Y195046663D01*
X40562145Y195045663D01*
X40561827Y195043249D01*
X40489575Y194970997D01*
X40436649Y194891788D01*
X40434855Y194890903D01*
X40433192Y194892014D01*
X40433222Y194893842D01*
X40441786Y194909864D01*
X40448786Y194932939D01*
X40451149Y194956930D01*
X40448786Y194980921D01*
X40441786Y195003996D01*
X40430421Y195025260D01*
X40415125Y195043897D01*
X40396489Y195059192D01*
X40375225Y195070557D01*
X40357846Y195075829D01*
X40356479Y195077289D01*
X40357060Y195079203D01*
X40358817Y195079705D01*
X40524931Y195046663D01*
G37*
G36*
X-128543819Y195046663D02*
G01*
X-128508337Y195046663D01*
X-128506605Y195045663D01*
X-128506923Y195043249D01*
X-128579175Y194970997D01*
X-128632101Y194891788D01*
X-128633895Y194890903D01*
X-128635558Y194892014D01*
X-128635528Y194893842D01*
X-128626964Y194909864D01*
X-128619964Y194932939D01*
X-128617601Y194956930D01*
X-128619964Y194980921D01*
X-128626964Y195003996D01*
X-128638329Y195025260D01*
X-128653625Y195043897D01*
X-128672261Y195059192D01*
X-128693525Y195070557D01*
X-128710904Y195075829D01*
X-128712271Y195077289D01*
X-128711690Y195079203D01*
X-128709933Y195079705D01*
X-128543819Y195046663D01*
G37*
G36*
X-33293819Y195046663D02*
G01*
X-33258337Y195046663D01*
X-33256605Y195045663D01*
X-33256923Y195043249D01*
X-33329175Y194970997D01*
X-33382101Y194891788D01*
X-33383895Y194890903D01*
X-33385558Y194892014D01*
X-33385528Y194893842D01*
X-33376964Y194909864D01*
X-33369964Y194932939D01*
X-33367601Y194956930D01*
X-33369964Y194980921D01*
X-33376964Y195003996D01*
X-33388329Y195025260D01*
X-33403625Y195043897D01*
X-33422261Y195059192D01*
X-33443525Y195070557D01*
X-33460904Y195075829D01*
X-33462271Y195077289D01*
X-33461690Y195079203D01*
X-33459933Y195079705D01*
X-33293819Y195046663D01*
G37*
G36*
X41765767Y195871988D02*
G01*
X41766142Y195870380D01*
X41764953Y195864405D01*
X41764905Y195864215D01*
X41763154Y195858439D01*
X41760791Y195834447D01*
X41763154Y195810456D01*
X41770155Y195787381D01*
X41781521Y195766118D01*
X41796816Y195747481D01*
X41815454Y195732188D01*
X41836718Y195720822D01*
X41859793Y195713822D01*
X41877863Y195712043D01*
X41879489Y195710878D01*
X41879293Y195708888D01*
X41877667Y195708053D01*
X41868514Y195708053D01*
X41682670Y195671086D01*
X41680776Y195671729D01*
X41680432Y195673813D01*
X41762332Y195871535D01*
X41763919Y195872753D01*
X41765767Y195871988D01*
G37*
G36*
X-32052983Y195871988D02*
G01*
X-32052608Y195870380D01*
X-32053797Y195864405D01*
X-32053845Y195864215D01*
X-32055596Y195858439D01*
X-32057959Y195834447D01*
X-32055596Y195810456D01*
X-32048595Y195787381D01*
X-32037229Y195766118D01*
X-32021934Y195747481D01*
X-32003296Y195732188D01*
X-31982032Y195720822D01*
X-31958957Y195713822D01*
X-31940887Y195712043D01*
X-31939261Y195710878D01*
X-31939457Y195708888D01*
X-31941083Y195708053D01*
X-31950236Y195708053D01*
X-32136080Y195671086D01*
X-32137974Y195671729D01*
X-32138318Y195673813D01*
X-32056418Y195871535D01*
X-32054831Y195872753D01*
X-32052983Y195871988D01*
G37*
G36*
X-127302983Y195871988D02*
G01*
X-127302608Y195870380D01*
X-127303797Y195864405D01*
X-127303845Y195864215D01*
X-127305596Y195858439D01*
X-127307959Y195834447D01*
X-127305596Y195810456D01*
X-127298595Y195787381D01*
X-127287229Y195766118D01*
X-127271934Y195747481D01*
X-127253296Y195732188D01*
X-127232032Y195720822D01*
X-127208957Y195713822D01*
X-127190887Y195712043D01*
X-127189261Y195710878D01*
X-127189457Y195708888D01*
X-127191083Y195708053D01*
X-127200236Y195708053D01*
X-127386080Y195671086D01*
X-127387974Y195671729D01*
X-127388318Y195673813D01*
X-127306418Y195871535D01*
X-127304831Y195872753D01*
X-127302983Y195871988D01*
G37*
G36*
X39563662Y196671687D02*
G01*
X39563812Y196669866D01*
X39516562Y196555793D01*
X39471663Y196330069D01*
X39471663Y196099931D01*
X39516562Y195874207D01*
X39563813Y195760133D01*
X39563552Y195758150D01*
X39561704Y195757385D01*
X39560201Y195758425D01*
X39551637Y195774448D01*
X39536342Y195793085D01*
X39517705Y195808381D01*
X39496441Y195819746D01*
X39473366Y195826746D01*
X39449375Y195829109D01*
X39425384Y195826746D01*
X39402309Y195819746D01*
X39381046Y195808381D01*
X39362409Y195793086D01*
X39347113Y195774449D01*
X39338550Y195758426D01*
X39336852Y195757370D01*
X39335088Y195758313D01*
X39334938Y195760134D01*
X39382188Y195874207D01*
X39427087Y196099931D01*
X39427087Y196330069D01*
X39382188Y196555793D01*
X39334937Y196669867D01*
X39335198Y196671850D01*
X39337046Y196672615D01*
X39338549Y196671575D01*
X39347113Y196655552D01*
X39362408Y196636915D01*
X39381045Y196621619D01*
X39402309Y196610254D01*
X39425384Y196603254D01*
X39449375Y196600891D01*
X39473366Y196603254D01*
X39496441Y196610254D01*
X39517704Y196621619D01*
X39536341Y196636914D01*
X39551637Y196655551D01*
X39560200Y196671574D01*
X39561898Y196672630D01*
X39563662Y196671687D01*
G37*
G36*
X-34255088Y196671687D02*
G01*
X-34254938Y196669866D01*
X-34302188Y196555793D01*
X-34347087Y196330069D01*
X-34347087Y196099931D01*
X-34302188Y195874207D01*
X-34254937Y195760133D01*
X-34255198Y195758150D01*
X-34257046Y195757385D01*
X-34258549Y195758425D01*
X-34267113Y195774448D01*
X-34282408Y195793085D01*
X-34301045Y195808381D01*
X-34322309Y195819746D01*
X-34345384Y195826746D01*
X-34369375Y195829109D01*
X-34393366Y195826746D01*
X-34416441Y195819746D01*
X-34437704Y195808381D01*
X-34456341Y195793086D01*
X-34471637Y195774449D01*
X-34480200Y195758426D01*
X-34481898Y195757370D01*
X-34483662Y195758313D01*
X-34483812Y195760134D01*
X-34436562Y195874207D01*
X-34391663Y196099931D01*
X-34391663Y196330069D01*
X-34436562Y196555793D01*
X-34483813Y196669867D01*
X-34483552Y196671850D01*
X-34481704Y196672615D01*
X-34480201Y196671575D01*
X-34471637Y196655552D01*
X-34456342Y196636915D01*
X-34437705Y196621619D01*
X-34416441Y196610254D01*
X-34393366Y196603254D01*
X-34369375Y196600891D01*
X-34345384Y196603254D01*
X-34322309Y196610254D01*
X-34301046Y196621619D01*
X-34282409Y196636914D01*
X-34267113Y196655551D01*
X-34258550Y196671574D01*
X-34256852Y196672630D01*
X-34255088Y196671687D01*
G37*
G36*
X-129505088Y196671687D02*
G01*
X-129504938Y196669866D01*
X-129552188Y196555793D01*
X-129597087Y196330069D01*
X-129597087Y196099931D01*
X-129552188Y195874207D01*
X-129504937Y195760133D01*
X-129505198Y195758150D01*
X-129507046Y195757385D01*
X-129508549Y195758425D01*
X-129517113Y195774448D01*
X-129532408Y195793085D01*
X-129551045Y195808381D01*
X-129572309Y195819746D01*
X-129595384Y195826746D01*
X-129619375Y195829109D01*
X-129643366Y195826746D01*
X-129666441Y195819746D01*
X-129687704Y195808381D01*
X-129706341Y195793086D01*
X-129721637Y195774449D01*
X-129730200Y195758426D01*
X-129731898Y195757370D01*
X-129733662Y195758313D01*
X-129733812Y195760134D01*
X-129686562Y195874207D01*
X-129641663Y196099931D01*
X-129641663Y196330069D01*
X-129686562Y196555793D01*
X-129733813Y196669867D01*
X-129733552Y196671850D01*
X-129731704Y196672615D01*
X-129730201Y196671575D01*
X-129721637Y196655552D01*
X-129706342Y196636915D01*
X-129687705Y196621619D01*
X-129666441Y196610254D01*
X-129643366Y196603254D01*
X-129619375Y196600891D01*
X-129595384Y196603254D01*
X-129572309Y196610254D01*
X-129551046Y196621619D01*
X-129532409Y196636914D01*
X-129517113Y196655551D01*
X-129508550Y196671574D01*
X-129506852Y196672630D01*
X-129505088Y196671687D01*
G37*
G36*
X45913662Y199211687D02*
G01*
X45913812Y199209866D01*
X45866562Y199095793D01*
X45821663Y198870069D01*
X45821663Y198639931D01*
X45866562Y198414207D01*
X45913813Y198300133D01*
X45913552Y198298150D01*
X45911704Y198297385D01*
X45910201Y198298425D01*
X45901637Y198314448D01*
X45886342Y198333085D01*
X45867705Y198348381D01*
X45846441Y198359746D01*
X45823366Y198366746D01*
X45799375Y198369109D01*
X45775384Y198366746D01*
X45752309Y198359746D01*
X45731046Y198348381D01*
X45712409Y198333086D01*
X45697113Y198314449D01*
X45688550Y198298426D01*
X45686852Y198297370D01*
X45685088Y198298313D01*
X45684938Y198300134D01*
X45732188Y198414207D01*
X45777087Y198639931D01*
X45777087Y198870069D01*
X45732188Y199095793D01*
X45684937Y199209867D01*
X45685198Y199211850D01*
X45687046Y199212615D01*
X45688549Y199211575D01*
X45697113Y199195552D01*
X45712408Y199176915D01*
X45731045Y199161619D01*
X45752309Y199150254D01*
X45775384Y199143254D01*
X45799375Y199140891D01*
X45823366Y199143254D01*
X45846441Y199150254D01*
X45867704Y199161619D01*
X45886341Y199176914D01*
X45901637Y199195551D01*
X45910200Y199211574D01*
X45911898Y199212630D01*
X45913662Y199211687D01*
G37*
G36*
X-27905088Y199211687D02*
G01*
X-27904938Y199209866D01*
X-27952188Y199095793D01*
X-27997087Y198870069D01*
X-27997087Y198639931D01*
X-27952188Y198414207D01*
X-27904937Y198300133D01*
X-27905198Y198298150D01*
X-27907046Y198297385D01*
X-27908549Y198298425D01*
X-27917113Y198314448D01*
X-27932408Y198333085D01*
X-27951045Y198348381D01*
X-27972309Y198359746D01*
X-27995384Y198366746D01*
X-28019375Y198369109D01*
X-28043366Y198366746D01*
X-28066441Y198359746D01*
X-28087704Y198348381D01*
X-28106341Y198333086D01*
X-28121637Y198314449D01*
X-28130200Y198298426D01*
X-28131898Y198297370D01*
X-28133662Y198298313D01*
X-28133812Y198300134D01*
X-28086562Y198414207D01*
X-28041663Y198639931D01*
X-28041663Y198870069D01*
X-28086562Y199095793D01*
X-28133813Y199209867D01*
X-28133552Y199211850D01*
X-28131704Y199212615D01*
X-28130201Y199211575D01*
X-28121637Y199195552D01*
X-28106342Y199176915D01*
X-28087705Y199161619D01*
X-28066441Y199150254D01*
X-28043366Y199143254D01*
X-28019375Y199140891D01*
X-27995384Y199143254D01*
X-27972309Y199150254D01*
X-27951046Y199161619D01*
X-27932409Y199176914D01*
X-27917113Y199195551D01*
X-27908550Y199211574D01*
X-27906852Y199212630D01*
X-27905088Y199211687D01*
G37*
G36*
X-123155088Y199211687D02*
G01*
X-123154938Y199209866D01*
X-123202188Y199095793D01*
X-123247087Y198870069D01*
X-123247087Y198639931D01*
X-123202188Y198414207D01*
X-123154937Y198300133D01*
X-123155198Y198298150D01*
X-123157046Y198297385D01*
X-123158549Y198298425D01*
X-123167113Y198314448D01*
X-123182408Y198333085D01*
X-123201045Y198348381D01*
X-123222309Y198359746D01*
X-123245384Y198366746D01*
X-123269375Y198369109D01*
X-123293366Y198366746D01*
X-123316441Y198359746D01*
X-123337704Y198348381D01*
X-123356341Y198333086D01*
X-123371637Y198314449D01*
X-123380200Y198298426D01*
X-123381898Y198297370D01*
X-123383662Y198298313D01*
X-123383812Y198300134D01*
X-123336562Y198414207D01*
X-123291663Y198639931D01*
X-123291663Y198870069D01*
X-123336562Y199095793D01*
X-123383813Y199209867D01*
X-123383552Y199211850D01*
X-123381704Y199212615D01*
X-123380201Y199211575D01*
X-123371637Y199195552D01*
X-123356342Y199176915D01*
X-123337705Y199161619D01*
X-123316441Y199150254D01*
X-123293366Y199143254D01*
X-123269375Y199140891D01*
X-123245384Y199143254D01*
X-123222309Y199150254D01*
X-123201046Y199161619D01*
X-123182409Y199176914D01*
X-123167113Y199195551D01*
X-123158550Y199211574D01*
X-123156852Y199212630D01*
X-123155088Y199211687D01*
G37*
G36*
X64410237Y233780497D02*
G01*
X64410505Y233779497D01*
X64410505Y232077497D01*
X64409505Y232075765D01*
X64408505Y232075497D01*
X64260505Y232075497D01*
X64258773Y232076497D01*
X64258505Y232077497D01*
X64258505Y233777497D01*
X63610505Y233777497D01*
X63610505Y232077497D01*
X63609505Y232075765D01*
X63608505Y232075497D01*
X63460505Y232075497D01*
X63458773Y232076497D01*
X63458505Y232077497D01*
X63458505Y233777497D01*
X62810505Y233777497D01*
X62810505Y232077497D01*
X62809505Y232075765D01*
X62808505Y232075497D01*
X62660505Y232075497D01*
X62658773Y232076497D01*
X62658505Y232077497D01*
X62658505Y233777497D01*
X62010505Y233777497D01*
X62010505Y232077497D01*
X62009505Y232075765D01*
X62008505Y232075497D01*
X61860505Y232075497D01*
X61858773Y232076497D01*
X61858505Y232077497D01*
X61858505Y233777497D01*
X61210505Y233777497D01*
X61210505Y232077497D01*
X61209505Y232075765D01*
X61208505Y232075497D01*
X61060505Y232075497D01*
X61058773Y232076497D01*
X61058505Y232077497D01*
X61058505Y233777497D01*
X60410505Y233777497D01*
X60410505Y232077497D01*
X60409505Y232075765D01*
X60408505Y232075497D01*
X60260505Y232075497D01*
X60258773Y232076497D01*
X60258505Y232077497D01*
X60258505Y233777497D01*
X59610505Y233777497D01*
X59610505Y232077497D01*
X59609505Y232075765D01*
X59608505Y232075497D01*
X59460505Y232075497D01*
X59458773Y232076497D01*
X59458505Y232077497D01*
X59458505Y233779497D01*
X59459505Y233781229D01*
X59460505Y233781497D01*
X64408505Y233781497D01*
X64410237Y233780497D01*
G37*
G36*
X58537237Y234853497D02*
G01*
X58537505Y234852497D01*
X58537505Y234704497D01*
X58536505Y234702765D01*
X58535505Y234702497D01*
X56833505Y234702497D01*
X56831773Y234703497D01*
X56831505Y234704497D01*
X56831505Y234852497D01*
X56832505Y234854229D01*
X56833505Y234854497D01*
X58535505Y234854497D01*
X58537237Y234853497D01*
G37*
G36*
X67037237Y234853497D02*
G01*
X67037505Y234852497D01*
X67037505Y234704497D01*
X67036505Y234702765D01*
X67035505Y234702497D01*
X65333505Y234702497D01*
X65331773Y234703497D01*
X65331505Y234704497D01*
X65331505Y234852497D01*
X65332505Y234854229D01*
X65333505Y234854497D01*
X67035505Y234854497D01*
X67037237Y234853497D01*
G37*
G36*
X67037237Y235653497D02*
G01*
X67037505Y235652497D01*
X67037505Y235504497D01*
X67036505Y235502765D01*
X67035505Y235502497D01*
X65333505Y235502497D01*
X65331773Y235503497D01*
X65331505Y235504497D01*
X65331505Y235652497D01*
X65332505Y235654229D01*
X65333505Y235654497D01*
X67035505Y235654497D01*
X67037237Y235653497D01*
G37*
G36*
X58537237Y235653497D02*
G01*
X58537505Y235652497D01*
X58537505Y235504497D01*
X58536505Y235502765D01*
X58535505Y235502497D01*
X56833505Y235502497D01*
X56831773Y235503497D01*
X56831505Y235504497D01*
X56831505Y235652497D01*
X56832505Y235654229D01*
X56833505Y235654497D01*
X58535505Y235654497D01*
X58537237Y235653497D01*
G37*
G36*
X67037237Y236453497D02*
G01*
X67037505Y236452497D01*
X67037505Y236304497D01*
X67036505Y236302765D01*
X67035505Y236302497D01*
X65333505Y236302497D01*
X65331773Y236303497D01*
X65331505Y236304497D01*
X65331505Y236452497D01*
X65332505Y236454229D01*
X65333505Y236454497D01*
X67035505Y236454497D01*
X67037237Y236453497D01*
G37*
G36*
X58537237Y236453497D02*
G01*
X58537505Y236452497D01*
X58537505Y236304497D01*
X58536505Y236302765D01*
X58535505Y236302497D01*
X56833505Y236302497D01*
X56831773Y236303497D01*
X56831505Y236304497D01*
X56831505Y236452497D01*
X56832505Y236454229D01*
X56833505Y236454497D01*
X58535505Y236454497D01*
X58537237Y236453497D01*
G37*
G36*
X58537237Y237253497D02*
G01*
X58537505Y237252497D01*
X58537505Y237104497D01*
X58536505Y237102765D01*
X58535505Y237102497D01*
X56833505Y237102497D01*
X56831773Y237103497D01*
X56831505Y237104497D01*
X56831505Y237252497D01*
X56832505Y237254229D01*
X56833505Y237254497D01*
X58535505Y237254497D01*
X58537237Y237253497D01*
G37*
G36*
X67037237Y237253497D02*
G01*
X67037505Y237252497D01*
X67037505Y237104497D01*
X67036505Y237102765D01*
X67035505Y237102497D01*
X65333505Y237102497D01*
X65331773Y237103497D01*
X65331505Y237104497D01*
X65331505Y237252497D01*
X65332505Y237254229D01*
X65333505Y237254497D01*
X67035505Y237254497D01*
X67037237Y237253497D01*
G37*
G36*
X67037237Y238053497D02*
G01*
X67037505Y238052497D01*
X67037505Y237904497D01*
X67036505Y237902765D01*
X67035505Y237902497D01*
X65333505Y237902497D01*
X65331773Y237903497D01*
X65331505Y237904497D01*
X65331505Y238052497D01*
X65332505Y238054229D01*
X65333505Y238054497D01*
X67035505Y238054497D01*
X67037237Y238053497D01*
G37*
G36*
X58537237Y238053497D02*
G01*
X58537505Y238052497D01*
X58537505Y237904497D01*
X58536505Y237902765D01*
X58535505Y237902497D01*
X56833505Y237902497D01*
X56831773Y237903497D01*
X56831505Y237904497D01*
X56831505Y238052497D01*
X56832505Y238054229D01*
X56833505Y238054497D01*
X58535505Y238054497D01*
X58537237Y238053497D01*
G37*
G36*
X58537237Y238853497D02*
G01*
X58537505Y238852497D01*
X58537505Y238704497D01*
X58536505Y238702765D01*
X58535505Y238702497D01*
X56833505Y238702497D01*
X56831773Y238703497D01*
X56831505Y238704497D01*
X56831505Y238852497D01*
X56832505Y238854229D01*
X56833505Y238854497D01*
X58535505Y238854497D01*
X58537237Y238853497D01*
G37*
G36*
X67037237Y238853497D02*
G01*
X67037505Y238852497D01*
X67037505Y238704497D01*
X67036505Y238702765D01*
X67035505Y238702497D01*
X65333505Y238702497D01*
X65331773Y238703497D01*
X65331505Y238704497D01*
X65331505Y238852497D01*
X65332505Y238854229D01*
X65333505Y238854497D01*
X67035505Y238854497D01*
X67037237Y238853497D01*
G37*
G36*
X67037237Y239653497D02*
G01*
X67037505Y239652497D01*
X67037505Y239504497D01*
X67036505Y239502765D01*
X67035505Y239502497D01*
X65333505Y239502497D01*
X65331773Y239503497D01*
X65331505Y239504497D01*
X65331505Y239652497D01*
X65332505Y239654229D01*
X65333505Y239654497D01*
X67035505Y239654497D01*
X67037237Y239653497D01*
G37*
G36*
X58537237Y239653497D02*
G01*
X58537505Y239652497D01*
X58537505Y239504497D01*
X58536505Y239502765D01*
X58535505Y239502497D01*
X56833505Y239502497D01*
X56831773Y239503497D01*
X56831505Y239504497D01*
X56831505Y239652497D01*
X56832505Y239654229D01*
X56833505Y239654497D01*
X58535505Y239654497D01*
X58537237Y239653497D01*
G37*
G36*
X64410237Y242280497D02*
G01*
X64410505Y242279497D01*
X64410505Y240577497D01*
X64409505Y240575765D01*
X64408505Y240575497D01*
X64260505Y240575497D01*
X64258773Y240576497D01*
X64258505Y240577497D01*
X64258505Y242277497D01*
X63610505Y242277497D01*
X63610505Y240577497D01*
X63609505Y240575765D01*
X63608505Y240575497D01*
X63460505Y240575497D01*
X63458773Y240576497D01*
X63458505Y240577497D01*
X63458505Y242277497D01*
X62810505Y242277497D01*
X62810505Y240577497D01*
X62809505Y240575765D01*
X62808505Y240575497D01*
X62660505Y240575497D01*
X62658773Y240576497D01*
X62658505Y240577497D01*
X62658505Y242277497D01*
X62010505Y242277497D01*
X62010505Y240577497D01*
X62009505Y240575765D01*
X62008505Y240575497D01*
X61860505Y240575497D01*
X61858773Y240576497D01*
X61858505Y240577497D01*
X61858505Y242277497D01*
X61210505Y242277497D01*
X61210505Y240577497D01*
X61209505Y240575765D01*
X61208505Y240575497D01*
X61060505Y240575497D01*
X61058773Y240576497D01*
X61058505Y240577497D01*
X61058505Y242277497D01*
X60410505Y242277497D01*
X60410505Y240577497D01*
X60409505Y240575765D01*
X60408505Y240575497D01*
X60260505Y240575497D01*
X60258773Y240576497D01*
X60258505Y240577497D01*
X60258505Y242277497D01*
X59610505Y242277497D01*
X59610505Y240577497D01*
X59609505Y240575765D01*
X59608505Y240575497D01*
X59460505Y240575497D01*
X59458773Y240576497D01*
X59458505Y240577497D01*
X59458505Y242279497D01*
X59459505Y242281229D01*
X59460505Y242281497D01*
X64408505Y242281497D01*
X64410237Y242280497D01*
G37*
G36*
X106468671Y252559050D02*
G01*
X106570227Y252457494D01*
X106760450Y252330391D01*
X106761335Y252328597D01*
X106760224Y252326934D01*
X106758758Y252326814D01*
X106738390Y252332993D01*
X106714398Y252335356D01*
X106690407Y252332993D01*
X106667332Y252325993D01*
X106646069Y252314628D01*
X106627432Y252299332D01*
X106612137Y252280695D01*
X106600772Y252259432D01*
X106593772Y252236357D01*
X106591390Y252212170D01*
X106590225Y252210544D01*
X106588235Y252210740D01*
X106587400Y252212366D01*
X106587400Y252347000D01*
X106374970Y252347000D01*
X106373238Y252348000D01*
X106373238Y252350000D01*
X106374774Y252350990D01*
X106398961Y252353372D01*
X106422036Y252360372D01*
X106443300Y252371737D01*
X106461937Y252387032D01*
X106477232Y252405669D01*
X106488597Y252426933D01*
X106495597Y252450008D01*
X106497960Y252473999D01*
X106495597Y252497990D01*
X106488597Y252521065D01*
X106477232Y252542329D01*
X106465711Y252556367D01*
X106465385Y252558341D01*
X106466931Y252559609D01*
X106468671Y252559050D01*
G37*
G36*
X-299268Y257400750D02*
G01*
X-299000Y257399750D01*
X-299000Y254847750D01*
X-300000Y254846018D01*
X-301000Y254845750D01*
X-374000Y254845750D01*
X-375732Y254846750D01*
X-376000Y254847750D01*
X-376000Y257397750D01*
X-1074000Y257397750D01*
X-1074000Y254847750D01*
X-1075000Y254846018D01*
X-1076000Y254845750D01*
X-1224000Y254845750D01*
X-1225732Y254846750D01*
X-1226000Y254847750D01*
X-1226000Y257397750D01*
X-1624000Y257397750D01*
X-1624000Y254847750D01*
X-1625000Y254846018D01*
X-1626000Y254845750D01*
X-1724000Y254845750D01*
X-1725732Y254846750D01*
X-1726000Y254847750D01*
X-1726000Y257397750D01*
X-2124000Y257397750D01*
X-2124000Y254847750D01*
X-2125000Y254846018D01*
X-2126000Y254845750D01*
X-2224000Y254845750D01*
X-2225732Y254846750D01*
X-2226000Y254847750D01*
X-2226000Y257397750D01*
X-2624000Y257397750D01*
X-2624000Y254847750D01*
X-2625000Y254846018D01*
X-2626000Y254845750D01*
X-2724000Y254845750D01*
X-2725732Y254846750D01*
X-2726000Y254847750D01*
X-2726000Y257397750D01*
X-3124000Y257397750D01*
X-3124000Y254847750D01*
X-3125000Y254846018D01*
X-3126000Y254845750D01*
X-3224000Y254845750D01*
X-3225732Y254846750D01*
X-3226000Y254847750D01*
X-3226000Y257397750D01*
X-3624000Y257397750D01*
X-3624000Y254847750D01*
X-3625000Y254846018D01*
X-3626000Y254845750D01*
X-3724000Y254845750D01*
X-3725732Y254846750D01*
X-3726000Y254847750D01*
X-3726000Y257397750D01*
X-4124000Y257397750D01*
X-4124000Y254847750D01*
X-4125000Y254846018D01*
X-4126000Y254845750D01*
X-4224000Y254845750D01*
X-4225732Y254846750D01*
X-4226000Y254847750D01*
X-4226000Y257397750D01*
X-4624000Y257397750D01*
X-4624000Y254847750D01*
X-4625000Y254846018D01*
X-4626000Y254845750D01*
X-4724000Y254845750D01*
X-4725732Y254846750D01*
X-4726000Y254847750D01*
X-4726000Y257397750D01*
X-5124000Y257397750D01*
X-5124000Y254847750D01*
X-5125000Y254846018D01*
X-5126000Y254845750D01*
X-5274000Y254845750D01*
X-5275732Y254846750D01*
X-5276000Y254847750D01*
X-5276000Y257397750D01*
X-5974000Y257397750D01*
X-5974000Y254847750D01*
X-5975000Y254846018D01*
X-5976000Y254845750D01*
X-6049000Y254845750D01*
X-6050732Y254846750D01*
X-6051000Y254847750D01*
X-6051000Y257399750D01*
X-6050000Y257401482D01*
X-6049000Y257401750D01*
X-301000Y257401750D01*
X-299268Y257400750D01*
G37*
M02*
